<svg version="1.1" xmlns="http://www.w3.org/2000/svg" viewBox="0 0 492 309.42043018341064" width="492" height="309.42043018341064" filter="invert(93%) hue-rotate(180deg)">
  <!-- svg-source:excalidraw -->
  
  <defs>
    <style>
      @font-face {
        font-family: "Virgil";
        src: url("https://unpkg.com/@zsviczian/excalidraw@0.12.0-obsidian-9/dist/excalidraw-assets/Virgil.woff2");
      }
      @font-face {
        font-family: "Cascadia";
        src: url("https://unpkg.com/@zsviczian/excalidraw@0.12.0-obsidian-9/dist/excalidraw-assets/Cascadia.woff2");
      }
    </style>
  </defs>
  <rect x="0" y="0" width="492" height="309.42043018341064" fill="#ffffff"/><g transform="translate(32 19) rotate(0 -0.5 69)" stroke="none"><path fill="#000000" d="M -1.59,-0.22 Q -1.59,-0.22 -1.47,-2.26 -1.34,-4.29 -1.28,-4.52 -1.22,-4.75 -1.11,-4.95 -0.99,-5.16 -0.84,-5.33 -0.68,-5.50 -0.48,-5.63 -0.29,-5.76 -0.07,-5.84 0.15,-5.91 0.38,-5.94 0.61,-5.96 0.84,-5.93 1.07,-5.89 1.29,-5.81 1.51,-5.72 1.70,-5.58 1.89,-5.45 2.04,-5.27 2.19,-5.09 2.29,-4.88 2.40,-4.67 2.45,-4.44 2.50,-4.21 2.50,-3.98 2.49,-3.75 2.25,2.10 2.02,7.95 0.07,19.60 -1.86,31.26 -4.72,47.69 -7.58,64.11 -10.27,81.12 -12.97,98.13 -14.69,108.83 -16.41,119.52 -17.47,126.88 -18.53,134.24 -18.40,134.83 -18.28,135.42 -18.34,135.65 -18.40,135.88 -18.51,136.08 -18.62,136.29 -18.78,136.46 -18.94,136.64 -19.13,136.77 -19.33,136.90 -19.55,136.98 -19.77,137.06 -20.01,137.09 -20.24,137.11 -20.47,137.08 -20.71,137.05 -20.92,136.96 -21.14,136.87 -21.33,136.74 -21.53,136.60 -21.68,136.42 -21.83,136.24 -21.94,136.03 -22.05,135.82 -22.10,135.60 -22.15,135.37 -22.15,135.13 -22.14,134.90 -21.19,129.64 -20.23,124.38 -19.25,118.44 -18.28,112.50 -14.72,99.50 -11.16,86.51 -6.51,76.52 -1.85,66.53 3.39,60.72 8.65,54.92 12.54,56.63 16.43,58.35 18.69,63.09 20.95,67.83 20.95,80.74 20.96,93.66 20.02,101.68 19.07,109.69 15.30,116.66 11.54,123.63 11.34,123.71 11.14,123.78 10.93,123.78 10.72,123.79 10.51,123.73 10.31,123.66 10.14,123.54 9.97,123.41 9.84,123.24 9.72,123.07 9.66,122.86 9.60,122.66 9.60,122.45 9.61,122.24 9.68,122.04 9.76,121.84 9.89,121.67 10.02,121.51 10.20,121.39 10.38,121.28 10.59,121.23 10.80,121.18 11.01,121.20 11.22,121.21 11.41,121.30 11.61,121.38 11.77,121.53 11.92,121.67 12.03,121.85 12.13,122.04 12.17,122.25 12.21,122.46 12.18,122.67 12.15,122.88 12.06,123.07 11.96,123.26 11.81,123.41 11.66,123.56 11.47,123.65 11.28,123.74 11.07,123.77 10.86,123.80 10.65,123.76 10.44,123.72 10.26,123.61 10.07,123.51 9.93,123.35 9.79,123.19 9.71,123.00 9.62,122.80 9.61,122.59 9.59,122.38 9.64,122.17 9.69,121.97 9.81,121.79 9.92,121.61 10.09,121.48 10.26,121.34 10.26,121.34 10.25,121.34 11.94,115.19 13.62,109.04 14.51,101.32 15.39,93.60 15.64,81.67 15.89,69.74 14.66,66.08 13.43,62.42 10.47,60.59 7.51,58.77 4.76,63.59 2.01,68.40 -2.69,77.98 -7.40,87.57 -10.99,100.33 -14.57,113.10 -15.53,119.07 -16.49,125.05 -17.38,130.23 -18.28,135.42 -18.34,135.65 -18.40,135.88 -18.51,136.08 -18.62,136.29 -18.78,136.46 -18.94,136.64 -19.13,136.77 -19.33,136.90 -19.55,136.98 -19.77,137.06 -20.00,137.09 -20.24,137.11 -20.47,137.08 -20.71,137.05 -20.92,136.96 -21.14,136.87 -21.33,136.74 -21.53,136.60 -21.68,136.42 -21.83,136.24 -21.94,136.03 -22.05,135.82 -22.10,135.60 -22.15,135.37 -22.15,135.13 -22.14,134.90 -22.31,134.36 -22.48,133.82 -21.51,126.34 -20.55,118.86 -18.88,108.17 -17.20,97.48 -14.61,80.41 -12.01,63.34 -9.19,46.92 -6.37,30.50 -4.42,19.01 -2.47,7.52 -1.91,1.61 -1.34,-4.29 -1.28,-4.52 -1.22,-4.75 -1.11,-4.95 -0.99,-5.16 -0.84,-5.33 -0.68,-5.50 -0.48,-5.63 -0.29,-5.76 -0.07,-5.84 0.15,-5.91 0.38,-5.94 0.61,-5.96 0.84,-5.93 1.07,-5.89 1.29,-5.81 1.51,-5.72 1.70,-5.58 1.89,-5.45 2.04,-5.27 2.19,-5.09 2.29,-4.88 2.40,-4.67 2.45,-4.44 2.50,-4.21 2.50,-3.98 2.49,-3.75 2.04,-1.76 1.59,0.22 1.54,0.41 1.49,0.60 1.40,0.77 1.30,0.94 1.17,1.08 1.04,1.23 0.88,1.33 0.71,1.44 0.53,1.50 0.35,1.57 0.15,1.59 -0.03,1.61 -0.22,1.58 -0.41,1.55 -0.59,1.48 -0.78,1.41 -0.93,1.29 -1.09,1.18 -1.22,1.03 -1.34,0.88 -1.43,0.71 -1.52,0.54 -1.56,0.35 -1.60,0.16 -1.60,-0.03 -1.59,-0.22 -1.59,-0.22 L -1.59,-0.22 Z"/></g><g transform="translate(77 118) rotate(0 14.5 3)" stroke="none"><path fill="#000000" d="M 1.26,1.00 Q 1.26,1.00 0.25,1.87 -0.74,2.75 0.95,1.89 2.64,1.03 6.24,-2.51 9.85,-6.06 13.35,-10.95 16.85,-15.84 19.12,-20.97 21.39,-26.10 22.68,-28.83 23.98,-31.57 22.85,-33.48 21.72,-35.39 19.17,-35.67 16.63,-35.95 13.28,-34.06 9.93,-32.17 6.29,-26.73 2.66,-21.30 -0.64,-11.64 -3.94,-1.98 -5.23,9.20 -6.52,20.40 -5.91,27.05 -5.30,33.69 -0.86,33.88 3.56,34.07 8.75,30.08 13.94,26.10 20.37,19.17 26.81,12.25 30.43,8.60 34.06,4.96 34.22,4.82 34.38,4.68 34.58,4.60 34.78,4.52 34.99,4.51 35.20,4.50 35.41,4.56 35.61,4.62 35.79,4.73 35.96,4.85 36.09,5.02 36.22,5.19 36.29,5.39 36.36,5.59 36.36,5.81 36.36,6.02 36.29,6.22 36.22,6.42 36.09,6.59 35.97,6.76 35.79,6.88 35.61,7.00 35.41,7.06 35.20,7.11 34.99,7.10 34.78,7.09 34.58,7.01 34.38,6.93 34.22,6.80 34.06,6.66 33.95,6.48 33.84,6.29 33.80,6.09 33.75,5.88 33.77,5.67 33.80,5.46 33.89,5.26 33.97,5.07 34.12,4.92 34.27,4.76 34.45,4.66 34.64,4.56 34.85,4.53 35.06,4.49 35.27,4.53 35.48,4.56 35.67,4.66 35.86,4.76 36.00,4.92 36.15,5.07 36.24,5.26 36.33,5.46 36.35,5.67 36.37,5.88 36.33,6.09 36.28,6.29 36.17,6.48 36.06,6.66 36.06,6.66 36.06,6.66 33.02,10.88 29.97,15.09 23.40,22.61 16.84,30.13 10.38,34.43 3.92,38.72 -1.44,38.09 -6.82,37.47 -9.00,28.67 -11.18,19.87 -9.56,8.26 -7.95,-3.34 -4.42,-13.53 -0.89,-23.71 3.42,-29.79 7.74,-35.87 12.29,-38.07 16.84,-40.27 20.71,-39.36 24.57,-38.44 26.35,-34.83 28.13,-31.22 26.80,-27.73 25.47,-24.24 22.91,-18.78 20.35,-13.32 16.55,-8.18 12.76,-3.04 8.66,0.76 4.57,4.57 2.22,5.74 -0.13,6.91 -1.99,4.95 -3.85,2.99 -2.55,0.99 -1.26,-1.00 -1.12,-1.14 -0.98,-1.28 -0.81,-1.37 -0.64,-1.47 -0.46,-1.53 -0.27,-1.59 -0.08,-1.60 0.11,-1.61 0.30,-1.57 0.49,-1.53 0.67,-1.45 0.84,-1.37 1.00,-1.25 1.15,-1.12 1.27,-0.97 1.38,-0.82 1.46,-0.64 1.54,-0.46 1.57,-0.27 1.61,-0.08 1.59,0.11 1.58,0.30 1.52,0.49 1.46,0.67 1.36,0.84 1.26,1.00 1.26,1.00 L 1.26,1.00 Z"/></g><g transform="translate(146 19) rotate(0 -14 69.5)" stroke="none"><path fill="#000000" d="M 1.53,0.51 Q 1.53,0.51 0.15,5.80 -1.22,11.09 -4.18,22.71 -7.13,34.34 -10.73,49.90 -14.32,65.47 -17.34,81.24 -20.35,97.01 -22.01,108.84 -23.67,120.66 -24.31,126.14 -24.94,131.61 -24.74,131.66 -24.53,131.71 -24.35,131.82 -24.17,131.93 -24.03,132.10 -23.90,132.26 -23.82,132.46 -23.75,132.66 -23.74,132.87 -23.73,133.09 -23.80,133.29 -23.86,133.49 -23.98,133.67 -24.10,133.84 -24.27,133.97 -24.44,134.09 -24.65,134.15 -24.85,134.22 -25.06,134.21 -25.27,134.21 -25.47,134.14 -25.67,134.07 -25.84,133.94 -26.01,133.80 -26.12,133.63 -26.24,133.45 -26.29,133.24 -26.35,133.04 -26.33,132.82 -26.31,132.61 -26.23,132.42 -26.15,132.22 -26.01,132.06 -25.87,131.90 -25.68,131.80 -25.50,131.69 -25.29,131.65 -25.08,131.61 -24.87,131.63 -24.66,131.66 -24.47,131.75 -24.28,131.85 -24.13,132.00 -23.98,132.14 -23.88,132.33 -23.79,132.52 -23.75,132.73 -23.72,132.94 -23.76,133.15 -23.80,133.36 -23.90,133.55 -24.01,133.73 -24.16,133.88 -24.32,134.02 -24.52,134.11 -24.71,134.19 -24.92,134.21 -25.13,134.23 -25.13,134.23 -25.13,134.23 -26.44,127.18 -27.75,120.13 -26.31,108.15 -24.88,96.17 -21.97,80.28 -19.05,64.38 -15.47,48.74 -11.89,33.10 -8.78,21.35 -5.67,9.60 -3.60,4.54 -1.53,-0.51 -1.44,-0.68 -1.36,-0.86 -1.24,-1.01 -1.11,-1.16 -0.96,-1.28 -0.80,-1.39 -0.62,-1.47 -0.44,-1.55 -0.25,-1.58 -0.06,-1.61 0.12,-1.59 0.32,-1.58 0.50,-1.52 0.69,-1.45 0.85,-1.35 1.02,-1.25 1.15,-1.11 1.28,-0.97 1.38,-0.80 1.48,-0.63 1.53,-0.44 1.59,-0.25 1.60,-0.06 1.60,0.12 1.57,0.31 1.53,0.51 1.53,0.51 L 1.53,0.51 Z"/></g><g transform="translate(171 13) rotate(0 -14.5 74)" stroke="none"><path fill="#000000" d="M 1.58,-0.31 Q 1.58,-0.31 2.04,1.11 2.51,2.54 1.55,8.12 0.59,13.70 -0.94,20.29 -2.48,26.87 -5.96,41.17 -9.44,55.47 -13.75,75.88 -18.07,96.30 -20.96,111.53 -23.85,126.76 -25.20,133.79 -26.55,140.82 -27.26,143.24 -27.98,145.66 -28.06,145.86 -28.13,146.06 -28.27,146.22 -28.40,146.38 -28.58,146.50 -28.76,146.61 -28.97,146.66 -29.17,146.71 -29.39,146.69 -29.60,146.67 -29.79,146.58 -29.99,146.50 -30.14,146.35 -30.30,146.21 -30.40,146.02 -30.50,145.84 -30.54,145.63 -30.58,145.42 -30.55,145.21 -30.52,145.00 -30.42,144.81 -30.33,144.62 -30.17,144.47 -30.02,144.32 -29.83,144.23 -29.64,144.14 -29.43,144.11 -29.22,144.09 -29.01,144.13 -28.80,144.17 -28.62,144.28 -28.43,144.38 -28.29,144.54 -28.15,144.70 -28.07,144.90 -27.99,145.09 -27.97,145.31 -27.96,145.52 -28.01,145.72 -28.07,145.93 -28.18,146.11 -28.30,146.29 -28.47,146.42 -28.63,146.55 -28.83,146.62 -29.03,146.69 -29.25,146.69 -29.46,146.70 -29.66,146.63 -29.86,146.57 -30.03,146.44 -30.21,146.32 -30.33,146.14 -30.45,145.97 -30.51,145.77 -30.57,145.56 -30.56,145.35 -30.55,145.14 -30.55,145.14 -30.55,145.14 -30.29,142.69 -30.02,140.25 -29.05,133.12 -28.09,126.00 -25.52,110.63 -22.96,95.25 -18.51,74.79 -14.06,54.32 -10.44,40.07 -6.81,25.82 -5.18,19.35 -3.55,12.88 -2.46,8.04 -1.36,3.20 -1.47,1.76 -1.58,0.31 -1.59,0.12 -1.61,-0.07 -1.58,-0.26 -1.54,-0.45 -1.47,-0.63 -1.39,-0.81 -1.27,-0.96 -1.15,-1.12 -1.00,-1.24 -0.85,-1.36 -0.68,-1.45 -0.50,-1.53 -0.31,-1.57 -0.12,-1.60 0.07,-1.60 0.26,-1.59 0.45,-1.53 0.63,-1.48 0.80,-1.38 0.97,-1.28 1.11,-1.15 1.25,-1.01 1.35,-0.85 1.46,-0.68 1.52,-0.50 1.58,-0.31 1.58,-0.31 L 1.58,-0.31 Z"/></g><g transform="translate(196 99) rotate(0 -17 21)" stroke="none"><path fill="#000000" d="M -1.59,0.26 Q -1.59,0.26 -1.97,-1.44 -2.36,-3.15 -2.59,-5.12 -2.81,-7.08 -2.68,-10.05 -2.55,-13.02 -2.75,-15.71 -2.95,-18.40 -3.81,-20.04 -4.67,-21.68 -6.96,-21.38 -9.24,-21.07 -13.40,-17.26 -17.55,-13.45 -20.93,-5.14 -24.32,3.15 -26.38,14.34 -28.44,25.53 -28.16,36.44 -27.88,47.34 -26.32,52.48 -24.77,57.63 -20.76,57.04 -16.75,56.44 -13.26,49.57 -9.77,42.70 -7.87,32.19 -5.98,21.67 -6.83,12.17 -7.69,2.67 -8.71,-1.57 -9.74,-5.83 -12.56,-5.32 -15.37,-4.82 -15.59,-4.80 -15.80,-4.78 -16.00,-4.83 -16.21,-4.88 -16.39,-4.99 -16.57,-5.11 -16.70,-5.27 -16.84,-5.44 -16.91,-5.64 -16.99,-5.84 -16.99,-6.05 -17.00,-6.26 -16.94,-6.46 -16.88,-6.67 -16.76,-6.84 -16.63,-7.01 -16.46,-7.14 -16.29,-7.26 -16.09,-7.33 -15.88,-7.39 -15.67,-7.39 -15.46,-7.38 -15.26,-7.31 -15.06,-7.24 -14.89,-7.11 -14.73,-6.97 -14.61,-6.80 -14.50,-6.62 -14.44,-6.41 -14.39,-6.21 -14.41,-5.99 -14.42,-5.78 -14.51,-5.59 -14.59,-5.39 -14.73,-5.23 -14.87,-5.07 -15.06,-4.97 -15.24,-4.86 -15.45,-4.82 -15.66,-4.78 -15.87,-4.81 -16.08,-4.83 -16.27,-4.93 -16.46,-5.02 -16.61,-5.17 -16.76,-5.32 -16.86,-5.51 -16.95,-5.70 -16.98,-5.91 -17.01,-6.12 -16.97,-6.33 -16.93,-6.54 -16.83,-6.72 -16.73,-6.91 -16.57,-7.05 -16.41,-7.19 -16.22,-7.28 -16.02,-7.36 -16.02,-7.36 -16.02,-7.36 -13.03,-8.34 -10.04,-9.32 -6.86,-3.53 -3.68,2.25 -2.76,12.31 -1.84,22.38 -3.89,33.55 -5.94,44.72 -10.38,52.34 -14.81,59.97 -19.99,61.01 -25.17,62.06 -28.98,54.82 -32.80,47.58 -32.99,36.12 -33.18,24.66 -30.92,12.98 -28.67,1.31 -24.60,-7.64 -20.54,-16.60 -15.29,-20.96 -10.04,-25.31 -6.44,-25.27 -2.84,-25.24 -0.66,-22.10 1.51,-18.96 1.68,-15.81 1.85,-12.66 1.51,-10.00 1.18,-7.34 1.19,-5.54 1.21,-3.74 1.40,-2.00 1.59,-0.26 1.60,-0.07 1.60,0.12 1.57,0.31 1.53,0.50 1.45,0.68 1.36,0.85 1.24,1.00 1.12,1.15 0.96,1.27 0.81,1.39 0.63,1.47 0.45,1.54 0.26,1.58 0.07,1.61 -0.12,1.59 -0.31,1.58 -0.50,1.52 -0.68,1.46 -0.85,1.35 -1.01,1.25 -1.15,1.11 -1.28,0.97 -1.38,0.80 -1.48,0.63 -1.53,0.45 -1.59,0.26 -1.59,0.26 L -1.59,0.26 Z"/></g><g transform="translate(241 90) rotate(0 29 31)" stroke="none"><path fill="#000000" d="M -1.59,0.26 Q -1.59,0.26 -2.05,-1.43 -2.51,-3.12 -2.52,-3.36 -2.53,-3.60 -2.49,-3.83 -2.44,-4.06 -2.34,-4.28 -2.24,-4.49 -2.09,-4.67 -1.94,-4.86 -1.75,-5.00 -1.56,-5.15 -1.34,-5.24 -1.13,-5.33 -0.89,-5.37 -0.66,-5.41 -0.42,-5.39 -0.18,-5.37 0.03,-5.30 0.26,-5.23 0.46,-5.10 0.66,-4.97 0.82,-4.80 0.99,-4.63 1.11,-4.43 1.23,-4.22 1.29,-4.00 1.36,-3.77 3.03,-0.00 4.70,3.76 5.83,11.56 6.96,19.36 8.27,28.93 9.57,38.50 10.90,47.44 12.22,56.39 13.42,61.59 14.62,66.79 15.95,67.66 17.29,68.52 17.33,68.78 17.36,69.03 17.33,69.29 17.31,69.55 17.22,69.79 17.13,70.03 16.99,70.24 16.85,70.46 16.66,70.63 16.47,70.81 16.24,70.93 16.02,71.05 15.77,71.12 15.52,71.18 15.26,71.19 15.00,71.19 14.75,71.14 14.50,71.08 14.27,70.96 14.04,70.85 13.85,70.68 13.65,70.51 13.50,70.30 13.35,70.09 13.26,69.85 13.16,69.62 14.24,64.75 15.32,59.88 16.65,52.09 17.98,44.30 19.74,36.03 21.51,27.76 23.10,23.11 24.70,18.46 24.77,18.24 24.85,18.01 24.98,17.81 25.11,17.61 25.28,17.44 25.46,17.28 25.66,17.16 25.87,17.04 26.10,16.97 26.33,16.91 26.57,16.90 26.81,16.89 27.05,16.94 27.28,16.99 27.50,17.09 27.71,17.19 27.90,17.35 28.08,17.50 28.23,17.69 28.37,17.88 28.46,18.10 28.56,18.32 28.59,18.56 28.63,18.80 28.61,19.04 28.59,19.27 29.83,19.44 31.07,19.61 31.90,26.47 32.73,33.33 33.29,41.84 33.85,50.35 34.72,56.54 35.58,62.72 35.57,62.94 35.56,63.16 35.50,63.36 35.43,63.57 35.32,63.76 35.21,63.94 35.06,64.10 34.91,64.25 34.72,64.36 34.54,64.48 34.33,64.54 34.12,64.61 33.91,64.62 33.69,64.64 33.48,64.60 33.27,64.56 33.07,64.47 32.87,64.39 32.70,64.25 32.53,64.12 32.39,63.95 32.26,63.78 32.17,63.59 32.08,63.39 32.04,63.18 32.00,62.96 34.14,62.09 36.29,61.22 38.13,55.06 39.97,48.89 42.33,37.84 44.69,26.79 47.55,16.02 50.42,5.25 54.41,0.22 58.40,-4.79 58.49,-4.60 58.57,-4.40 58.59,-4.19 58.61,-3.98 58.56,-3.77 58.50,-3.56 58.39,-3.39 58.28,-3.21 58.11,-3.07 57.95,-2.94 57.75,-2.86 57.55,-2.79 57.34,-2.78 57.12,-2.78 56.92,-2.84 56.72,-2.90 56.54,-3.02 56.37,-3.15 56.25,-3.32 56.12,-3.49 56.06,-3.69 56.00,-3.90 56.00,-4.11 56.01,-4.32 56.08,-4.52 56.15,-4.72 56.28,-4.89 56.42,-5.05 56.59,-5.17 56.77,-5.28 56.98,-5.34 57.19,-5.39 57.40,-5.37 57.61,-5.35 57.80,-5.27 58.00,-5.19 58.16,-5.05 58.32,-4.91 58.42,-4.72 58.53,-4.54 58.57,-4.33 58.61,-4.12 58.58,-3.91 58.55,-3.70 58.46,-3.51 58.37,-3.32 58.22,-3.17 58.07,-3.02 57.88,-2.92 57.69,-2.83 57.48,-2.80 57.27,-2.77 57.06,-2.81 56.85,-2.84 56.66,-2.95 56.48,-3.05 56.33,-3.21 56.19,-3.37 56.19,-3.37 56.19,-3.37 55.66,1.56 55.13,6.50 52.29,17.22 49.45,27.93 46.48,39.02 43.52,50.10 40.97,56.80 38.42,63.49 37.00,63.11 35.58,62.72 35.57,62.94 35.56,63.16 35.50,63.36 35.43,63.57 35.32,63.76 35.21,63.94 35.06,64.10 34.91,64.25 34.72,64.36 34.54,64.48 34.33,64.54 34.12,64.61 33.91,64.62 33.69,64.64 33.48,64.60 33.27,64.56 33.07,64.47 32.87,64.39 32.70,64.25 32.53,64.12 32.39,63.95 32.26,63.78 32.17,63.59 32.08,63.39 32.04,63.18 32.00,62.96 31.23,56.77 30.47,50.57 29.90,42.13 29.32,33.68 28.85,27.70 28.37,21.72 26.53,20.09 24.70,18.47 24.77,18.24 24.85,18.01 24.98,17.81 25.11,17.61 25.28,17.44 25.46,17.28 25.66,17.16 25.87,17.04 26.10,16.97 26.33,16.91 26.57,16.90 26.81,16.89 27.05,16.94 27.28,16.99 27.50,17.09 27.71,17.19 27.90,17.35 28.08,17.50 28.23,17.69 28.37,17.88 28.46,18.10 28.56,18.32 28.59,18.56 28.63,18.80 28.61,19.04 28.59,19.27 27.01,23.93 25.42,28.58 23.76,36.78 22.10,44.99 20.78,52.95 19.46,60.92 18.38,64.72 17.29,68.52 17.33,68.78 17.36,69.03 17.33,69.29 17.31,69.55 17.22,69.79 17.13,70.03 16.99,70.24 16.85,70.46 16.66,70.63 16.47,70.81 16.24,70.93 16.02,71.05 15.77,71.12 15.52,71.18 15.26,71.19 15.00,71.19 14.75,71.14 14.50,71.08 14.27,70.96 14.04,70.85 13.85,70.68 13.65,70.51 13.50,70.30 13.35,70.09 13.26,69.85 13.16,69.62 12.10,69.23 11.05,68.84 9.32,62.98 7.59,57.12 6.09,48.15 4.58,39.18 3.29,29.60 2.01,20.02 1.09,12.52 0.17,5.02 -1.17,0.94 -2.51,-3.12 -2.52,-3.36 -2.53,-3.60 -2.49,-3.83 -2.44,-4.06 -2.34,-4.28 -2.24,-4.49 -2.09,-4.67 -1.94,-4.86 -1.75,-5.00 -1.56,-5.15 -1.34,-5.24 -1.13,-5.33 -0.89,-5.37 -0.66,-5.41 -0.42,-5.39 -0.18,-5.38 0.03,-5.30 0.26,-5.23 0.46,-5.10 0.66,-4.97 0.82,-4.80 0.99,-4.63 1.11,-4.43 1.23,-4.22 1.29,-4.00 1.36,-3.77 1.47,-2.01 1.59,-0.26 1.60,-0.07 1.60,0.12 1.57,0.31 1.53,0.50 1.45,0.68 1.36,0.85 1.24,1.00 1.12,1.15 0.96,1.27 0.81,1.39 0.63,1.47 0.45,1.54 0.26,1.58 0.07,1.61 -0.12,1.59 -0.31,1.58 -0.50,1.52 -0.68,1.46 -0.85,1.35 -1.01,1.25 -1.15,1.11 -1.28,0.97 -1.38,0.80 -1.48,0.63 -1.53,0.45 -1.59,0.26 -1.59,0.26 L -1.59,0.26 Z"/></g><g transform="translate(339 108) rotate(0 -20.5 9)" stroke="none"><path fill="#000000" d="M -1.44,0.72 Q -1.44,0.72 -2.19,-0.35 -2.94,-1.42 -3.44,-3.00 -3.94,-4.58 -4.40,-5.88 -4.86,-7.18 -5.80,-8.61 -6.74,-10.04 -8.73,-11.94 -10.73,-13.83 -13.34,-15.46 -15.95,-17.09 -18.25,-17.51 -20.56,-17.93 -23.19,-16.05 -25.82,-14.17 -28.88,-9.29 -31.94,-4.41 -33.73,2.93 -35.51,10.27 -35.20,17.33 -34.89,24.38 -32.02,28.00 -29.15,31.62 -25.33,31.41 -21.51,31.20 -17.49,26.26 -13.46,21.32 -10.50,13.67 -7.54,6.02 -5.96,0.26 -4.38,-5.50 -5.95,-10.43 -7.52,-15.35 -7.43,-15.58 -7.34,-15.80 -7.20,-15.99 -7.06,-16.19 -6.88,-16.34 -6.70,-16.50 -6.48,-16.60 -6.27,-16.71 -6.04,-16.76 -5.80,-16.82 -5.56,-16.81 -5.32,-16.81 -5.09,-16.74 -4.86,-16.68 -4.65,-16.57 -4.44,-16.45 -4.26,-16.29 -4.09,-16.13 -3.96,-15.93 -3.82,-15.73 -3.74,-15.50 -3.66,-15.28 -3.64,-15.04 -3.61,-14.80 -3.65,-14.56 -3.68,-14.32 -6.77,-12.97 -9.85,-11.61 -11.62,-10.39 -13.39,-9.18 -13.57,-9.08 -13.76,-8.97 -13.97,-8.93 -14.18,-8.90 -14.39,-8.93 -14.60,-8.96 -14.79,-9.05 -14.98,-9.15 -15.13,-9.30 -15.28,-9.45 -15.37,-9.64 -15.46,-9.83 -15.49,-10.04 -15.52,-10.25 -15.48,-10.46 -15.43,-10.67 -15.33,-10.85 -15.22,-11.04 -15.06,-11.18 -14.90,-11.32 -14.71,-11.40 -14.51,-11.49 -14.30,-11.50 -14.09,-11.52 -13.88,-11.46 -13.68,-11.41 -13.50,-11.30 -13.32,-11.18 -13.19,-11.01 -13.06,-10.85 -12.98,-10.65 -12.91,-10.45 -12.91,-10.24 -12.90,-10.02 -12.97,-9.82 -13.03,-9.62 -13.16,-9.45 -13.28,-9.27 -13.46,-9.15 -13.63,-9.03 -13.83,-8.97 -14.04,-8.91 -14.25,-8.91 -14.46,-8.92 -14.66,-9.00 -14.86,-9.07 -15.02,-9.20 -15.19,-9.34 -15.30,-9.52 -15.41,-9.70 -15.46,-9.90 -15.51,-10.11 -15.50,-10.32 -15.48,-10.53 -15.39,-10.73 -15.31,-10.92 -15.16,-11.08 -15.02,-11.24 -15.02,-11.24 -15.02,-11.24 -13.01,-13.02 -11.00,-14.80 -9.26,-15.08 -7.52,-15.35 -7.43,-15.58 -7.34,-15.80 -7.20,-15.99 -7.06,-16.19 -6.88,-16.34 -6.70,-16.50 -6.48,-16.60 -6.27,-16.71 -6.04,-16.76 -5.80,-16.82 -5.56,-16.81 -5.32,-16.81 -5.09,-16.75 -4.86,-16.68 -4.65,-16.57 -4.44,-16.45 -4.26,-16.29 -4.09,-16.13 -3.96,-15.93 -3.82,-15.73 -3.74,-15.50 -3.66,-15.28 -3.64,-15.04 -3.61,-14.80 -3.65,-14.56 -3.68,-14.32 -2.02,-9.57 -0.35,-4.82 -1.97,1.36 -3.60,7.55 -6.83,15.86 -10.06,24.17 -15.19,29.71 -20.32,35.25 -25.86,35.35 -31.40,35.45 -35.68,30.34 -39.96,25.22 -40.23,17.12 -40.50,9.03 -38.24,1.03 -35.99,-6.97 -32.24,-12.49 -28.49,-18.02 -24.57,-20.34 -20.65,-22.66 -17.01,-22.13 -13.37,-21.60 -10.12,-19.65 -6.87,-17.70 -4.54,-15.22 -2.21,-12.74 -1.09,-10.65 0.02,-8.56 0.34,-6.99 0.66,-5.42 0.65,-4.29 0.64,-3.17 1.04,-1.94 1.44,-0.72 1.50,-0.53 1.57,-0.35 1.59,-0.16 1.61,0.03 1.58,0.22 1.55,0.41 1.48,0.59 1.41,0.77 1.30,0.93 1.18,1.09 1.03,1.22 0.89,1.34 0.71,1.43 0.54,1.52 0.35,1.56 0.16,1.60 -0.03,1.60 -0.22,1.59 -0.41,1.54 -0.60,1.49 -0.77,1.40 -0.94,1.30 -1.08,1.17 -1.22,1.04 -1.33,0.88 -1.44,0.72 -1.44,0.72 L -1.44,0.72 Z"/></g><g transform="translate(352 86) rotate(0 20 29.5)" stroke="none"><path fill="#000000" d="M 1.60,-0.13 Q 1.60,-0.13 1.96,3.31 2.32,6.75 2.37,10.56 2.42,14.38 1.22,23.85 0.03,33.32 -0.97,41.34 -1.97,49.36 -2.98,53.33 -4.00,57.31 -4.05,57.49 -4.09,57.66 -4.18,57.82 -4.26,57.98 -4.38,58.11 -4.50,58.25 -4.65,58.35 -4.80,58.45 -4.97,58.52 -5.14,58.58 -5.32,58.60 -5.50,58.62 -5.68,58.60 -5.86,58.57 -6.03,58.51 -6.20,58.44 -6.35,58.34 -6.50,58.23 -6.62,58.10 -6.73,57.96 -6.82,57.80 -6.90,57.64 -6.94,57.46 -6.98,57.28 -6.98,57.10 -6.98,56.92 -7.14,50.98 -7.30,45.04 -4.45,36.62 -1.61,28.21 1.79,21.90 5.19,15.58 14.03,10.86 22.88,6.14 29.86,6.77 36.85,7.40 39.89,8.90 42.93,10.41 43.12,10.50 43.31,10.59 43.46,10.74 43.62,10.89 43.71,11.08 43.81,11.27 43.84,11.48 43.87,11.69 43.83,11.90 43.79,12.11 43.69,12.30 43.58,12.48 43.43,12.63 43.27,12.77 43.08,12.85 42.88,12.94 42.67,12.96 42.46,12.98 42.25,12.93 42.04,12.88 41.86,12.76 41.68,12.65 41.55,12.49 41.42,12.32 41.34,12.12 41.27,11.92 41.26,11.71 41.25,11.50 41.31,11.30 41.37,11.09 41.50,10.92 41.62,10.74 41.79,10.62 41.96,10.49 42.17,10.43 42.37,10.37 42.58,10.37 42.79,10.38 42.99,10.45 43.19,10.52 43.36,10.65 43.53,10.78 43.64,10.96 43.76,11.14 43.81,11.35 43.86,11.55 43.85,11.76 43.83,11.97 43.75,12.17 43.67,12.37 43.53,12.53 43.38,12.68 43.20,12.79 43.02,12.90 42.81,12.94 42.60,12.98 42.39,12.95 42.18,12.93 42.18,12.93 42.18,12.93 39.21,12.63 36.25,12.34 30.44,11.45 24.64,10.56 16.94,14.43 9.24,18.31 6.17,24.10 3.10,29.89 0.20,37.78 -2.69,45.68 -3.61,50.16 -4.52,54.64 -4.26,55.98 -4.00,57.31 -4.05,57.49 -4.09,57.66 -4.18,57.82 -4.26,57.98 -4.38,58.11 -4.50,58.25 -4.65,58.35 -4.80,58.45 -4.97,58.52 -5.14,58.58 -5.32,58.60 -5.50,58.62 -5.68,58.60 -5.86,58.57 -6.03,58.51 -6.20,58.44 -6.35,58.34 -6.50,58.23 -6.62,58.10 -6.73,57.96 -6.82,57.80 -6.90,57.64 -6.94,57.46 -6.98,57.28 -6.98,57.10 -6.98,56.92 -5.96,52.94 -4.94,48.97 -3.86,40.98 -2.78,32.99 -1.78,23.73 -0.78,14.48 -0.97,10.76 -1.17,7.04 -1.38,3.58 -1.60,0.13 -1.60,-0.06 -1.59,-0.25 -1.54,-0.44 -1.48,-0.62 -1.38,-0.79 -1.29,-0.96 -1.15,-1.10 -1.02,-1.24 -0.85,-1.35 -0.69,-1.45 -0.51,-1.51 -0.32,-1.58 -0.13,-1.59 0.06,-1.61 0.25,-1.58 0.44,-1.55 0.62,-1.47 0.80,-1.39 0.95,-1.28 1.11,-1.16 1.23,-1.01 1.36,-0.86 1.44,-0.69 1.52,-0.51 1.56,-0.32 1.60,-0.13 1.60,-0.13 L 1.60,-0.13 Z"/></g><g transform="translate(411 25) rotate(0 -7 53.5)" stroke="none"><path fill="#000000" d="M -1.58,0.31 Q -1.58,0.31 -2.05,-1.08 -2.52,-2.48 -2.53,-2.72 -2.55,-2.96 -2.51,-3.19 -2.47,-3.43 -2.38,-3.65 -2.28,-3.87 -2.14,-4.06 -2.00,-4.25 -1.81,-4.40 -1.62,-4.55 -1.41,-4.65 -1.19,-4.75 -0.96,-4.80 -0.72,-4.85 -0.48,-4.84 -0.24,-4.83 -0.01,-4.76 0.21,-4.69 0.41,-4.57 0.62,-4.45 0.79,-4.28 0.96,-4.12 1.09,-3.92 1.22,-3.71 1.29,-3.49 1.37,-3.26 0.75,-0.48 0.14,2.30 -1.51,10.36 -3.16,18.43 -5.30,32.47 -7.43,46.51 -8.68,61.04 -9.93,75.57 -10.42,85.16 -10.91,94.75 -10.94,99.68 -10.96,104.60 -10.99,104.81 -11.02,105.02 -11.11,105.21 -11.20,105.40 -11.35,105.56 -11.50,105.71 -11.69,105.80 -11.88,105.90 -12.09,105.93 -12.30,105.96 -12.51,105.92 -12.72,105.89 -12.90,105.78 -13.09,105.68 -13.23,105.53 -13.38,105.37 -13.46,105.17 -13.55,104.98 -13.57,104.77 -13.59,104.56 -13.54,104.35 -13.49,104.14 -13.38,103.96 -13.26,103.78 -13.10,103.65 -12.94,103.51 -12.74,103.44 -12.54,103.36 -12.33,103.35 -12.11,103.35 -11.91,103.41 -11.71,103.47 -11.53,103.59 -11.36,103.71 -11.23,103.88 -11.11,104.05 -11.04,104.26 -10.98,104.46 -10.98,104.67 -10.98,104.88 -11.06,105.08 -11.13,105.28 -11.26,105.45 -11.39,105.62 -11.57,105.73 -11.74,105.85 -11.95,105.90 -12.16,105.96 -12.37,105.94 -12.58,105.93 -12.78,105.85 -12.97,105.76 -13.13,105.62 -13.29,105.48 -13.40,105.30 -13.50,105.12 -13.55,104.91 -13.59,104.70 -13.59,104.70 -13.59,104.70 -14.00,99.68 -14.41,94.67 -14.44,84.93 -14.48,75.20 -13.30,60.49 -12.13,45.79 -9.92,31.63 -7.71,17.46 -5.89,9.23 -4.08,1.00 -3.30,-0.74 -2.52,-2.48 -2.53,-2.72 -2.55,-2.96 -2.51,-3.19 -2.47,-3.43 -2.38,-3.65 -2.28,-3.87 -2.14,-4.06 -2.00,-4.25 -1.81,-4.40 -1.62,-4.55 -1.41,-4.65 -1.19,-4.75 -0.96,-4.80 -0.72,-4.85 -0.48,-4.84 -0.24,-4.83 -0.01,-4.76 0.20,-4.69 0.41,-4.57 0.62,-4.45 0.79,-4.28 0.96,-4.12 1.09,-3.92 1.22,-3.71 1.29,-3.49 1.37,-3.26 1.47,-1.79 1.58,-0.31 1.59,-0.12 1.61,0.07 1.58,0.26 1.54,0.45 1.47,0.63 1.39,0.81 1.27,0.96 1.15,1.12 1.00,1.24 0.85,1.36 0.68,1.45 0.50,1.53 0.31,1.57 0.12,1.60 -0.07,1.60 -0.26,1.59 -0.45,1.53 -0.63,1.48 -0.80,1.38 -0.97,1.28 -1.11,1.15 -1.25,1.01 -1.35,0.85 -1.46,0.68 -1.52,0.50 -1.58,0.31 -1.58,0.31 L -1.58,0.31 Z"/></g><g transform="translate(445 126) rotate(0 -6.5 -30.5)" stroke="none"><path fill="#000000" d="M -1.60,-0.14 Q -1.60,-0.14 -1.36,-3.31 -1.11,-6.47 -1.07,-8.65 -1.03,-10.84 -1.07,-12.90 -1.12,-14.96 -1.56,-18.61 -2.00,-22.25 -2.92,-25.24 -3.84,-28.23 -5.24,-29.62 -6.65,-31.02 -9.01,-30.39 -11.38,-29.76 -14.53,-25.00 -17.68,-20.25 -20.00,-15.11 -22.32,-9.98 -23.51,0.57 -24.70,11.13 -23.66,17.18 -22.61,23.23 -20.76,24.17 -18.91,25.10 -15.57,19.64 -12.23,14.17 -9.01,4.28 -5.80,-5.61 -2.67,-17.90 0.44,-30.20 3.20,-42.62 5.95,-55.03 7.67,-64.88 9.39,-74.73 10.65,-80.72 11.92,-86.70 12.46,-89.52 12.99,-92.33 13.08,-92.58 13.17,-92.83 13.32,-93.06 13.47,-93.28 13.66,-93.47 13.86,-93.65 14.10,-93.78 14.33,-93.91 14.59,-93.98 14.85,-94.05 15.12,-94.05 15.38,-94.06 15.65,-94.00 15.91,-93.94 16.15,-93.82 16.39,-93.71 16.59,-93.53 16.80,-93.36 16.96,-93.14 17.11,-92.92 17.21,-92.68 17.31,-92.43 17.35,-92.16 17.39,-91.90 17.37,-91.63 17.34,-91.36 17.38,-88.46 17.43,-85.57 16.05,-74.89 14.67,-64.21 12.32,-48.22 9.98,-32.24 8.36,-16.03 6.74,0.17 5.90,10.20 5.06,20.23 4.75,22.94 4.44,25.66 4.65,25.70 4.86,25.74 5.04,25.85 5.22,25.96 5.36,26.12 5.50,26.28 5.58,26.47 5.67,26.67 5.68,26.88 5.69,27.09 5.64,27.30 5.59,27.51 5.47,27.68 5.35,27.86 5.19,27.99 5.02,28.12 4.82,28.19 4.62,28.26 4.40,28.27 4.19,28.27 3.99,28.20 3.79,28.14 3.62,28.01 3.45,27.89 3.32,27.71 3.20,27.54 3.14,27.33 3.08,27.13 3.09,26.92 3.10,26.71 3.18,26.51 3.25,26.31 3.39,26.14 3.52,25.98 3.70,25.87 3.88,25.76 4.09,25.71 4.30,25.66 4.51,25.68 4.72,25.70 4.92,25.79 5.11,25.87 5.27,26.02 5.42,26.16 5.52,26.35 5.63,26.53 5.66,26.74 5.70,26.95 5.67,27.16 5.64,27.37 5.54,27.56 5.44,27.75 5.29,27.90 5.14,28.05 4.95,28.14 4.76,28.23 4.54,28.26 4.33,28.28 4.33,28.28 4.33,28.28 2.62,24.12 0.91,19.96 1.40,9.83 1.90,-0.29 3.42,-16.63 4.95,-32.98 7.29,-48.94 9.63,-64.90 11.17,-75.28 12.71,-85.65 12.85,-88.99 12.99,-92.33 13.08,-92.58 13.17,-92.83 13.32,-93.06 13.47,-93.28 13.66,-93.47 13.86,-93.65 14.10,-93.78 14.33,-93.91 14.59,-93.98 14.85,-94.05 15.12,-94.05 15.38,-94.06 15.65,-94.00 15.91,-93.94 16.15,-93.82 16.39,-93.71 16.59,-93.53 16.80,-93.36 16.96,-93.14 17.11,-92.92 17.21,-92.68 17.31,-92.43 17.35,-92.16 17.39,-91.90 17.37,-91.63 17.34,-91.36 16.75,-88.56 16.17,-85.76 14.80,-79.89 13.43,-74.02 11.65,-64.09 9.87,-54.16 7.10,-41.69 4.32,-29.22 1.21,-16.78 -1.89,-4.35 -5.24,6.07 -8.59,16.49 -12.57,22.31 -16.56,28.13 -21.11,27.20 -25.67,26.27 -27.54,18.46 -29.40,10.64 -27.96,-0.58 -26.52,-11.82 -24.00,-17.38 -21.48,-22.94 -17.30,-28.46 -13.12,-33.98 -9.07,-34.54 -5.02,-35.10 -2.14,-32.52 0.72,-29.94 1.75,-26.28 2.78,-22.61 2.88,-18.74 2.97,-14.86 2.81,-12.74 2.66,-10.63 2.46,-8.40 2.26,-6.17 1.93,-3.01 1.60,0.14 1.56,0.33 1.52,0.52 1.44,0.70 1.35,0.87 1.23,1.02 1.10,1.17 0.94,1.29 0.79,1.40 0.61,1.48 0.43,1.55 0.24,1.58 0.04,1.61 -0.14,1.59 -0.33,1.57 -0.52,1.51 -0.70,1.45 -0.87,1.34 -1.03,1.23 -1.16,1.09 -1.30,0.95 -1.39,0.78 -1.49,0.61 -1.54,0.43 -1.59,0.24 -1.60,0.04 -1.60,-0.14 -1.60,-0.14 L -1.60,-0.14 Z"/></g><g transform="translate(29 214) rotate(0 214 3.5)" stroke="none"><path fill="#000000" d="M -0.22,-1.59 Q -0.22,-1.59 1.78,-1.89 3.79,-2.20 8.13,-2.66 12.47,-3.13 16.87,-3.62 21.28,-4.11 28.94,-4.65 36.60,-5.20 46.49,-5.44 56.39,-5.67 68.09,-5.52 79.79,-5.37 92.52,-5.05 105.26,-4.73 119.31,-4.04 133.37,-3.35 149.07,-3.07 164.78,-2.80 181.78,-2.96 198.79,-3.12 211.49,-3.17 224.20,-3.23 246.28,-3.27 268.36,-3.31 282.92,-3.30 297.47,-3.29 318.07,-2.75 338.67,-2.21 354.33,-1.41 370.00,-0.61 381.60,0.58 393.20,1.79 401.34,3.16 409.49,4.54 414.70,5.73 419.91,6.93 422.46,7.56 425.01,8.19 425.06,8.47 425.10,8.76 425.32,8.83 425.55,8.91 425.75,9.03 425.95,9.16 426.11,9.33 426.28,9.50 426.40,9.70 426.51,9.91 426.58,10.13 426.65,10.36 426.66,10.60 426.67,10.83 426.62,11.07 426.58,11.30 426.48,11.51 426.38,11.73 426.23,11.91 426.08,12.09 425.89,12.24 425.70,12.38 425.49,12.47 425.27,12.57 425.04,12.61 424.80,12.65 424.57,12.63 424.33,12.61 422.51,12.19 420.70,11.78 418.68,11.31 416.67,10.84 416.47,10.76 416.27,10.69 416.10,10.56 415.93,10.42 415.82,10.25 415.70,10.07 415.65,9.86 415.60,9.66 415.62,9.44 415.63,9.23 415.72,9.04 415.80,8.84 415.94,8.68 416.08,8.52 416.27,8.42 416.45,8.31 416.66,8.27 416.87,8.23 417.08,8.26 417.29,8.29 417.48,8.38 417.67,8.48 417.82,8.63 417.97,8.78 418.07,8.97 418.16,9.16 418.19,9.37 418.22,9.58 418.18,9.79 418.14,9.99 418.04,10.18 417.93,10.36 417.78,10.51 417.62,10.65 417.42,10.73 417.23,10.82 417.02,10.84 416.81,10.85 416.60,10.80 416.39,10.75 416.21,10.64 416.03,10.52 415.90,10.36 415.77,10.19 415.69,10.00 415.62,9.80 415.61,9.58 415.61,9.37 415.67,9.17 415.73,8.96 415.85,8.79 415.98,8.62 416.15,8.49 416.32,8.37 416.52,8.31 416.73,8.24 416.94,8.25 417.15,8.25 417.15,8.25 417.15,8.25 419.08,8.53 421.00,8.80 423.05,8.78 425.10,8.76 425.32,8.83 425.55,8.91 425.75,9.03 425.95,9.16 426.11,9.33 426.28,9.50 426.40,9.70 426.51,9.91 426.58,10.13 426.65,10.36 426.66,10.60 426.67,10.83 426.62,11.07 426.58,11.30 426.48,11.51 426.38,11.73 426.23,11.91 426.08,12.09 425.89,12.24 425.70,12.38 425.49,12.47 425.27,12.57 425.04,12.61 424.80,12.65 424.57,12.63 424.33,12.61 423.99,12.48 423.65,12.34 421.25,11.99 418.85,11.63 413.75,10.51 408.66,9.38 400.68,8.00 392.69,6.62 381.22,5.41 369.75,4.20 354.14,3.36 338.53,2.52 318.01,1.92 297.48,1.32 282.92,1.36 268.37,1.39 246.30,1.41 224.23,1.42 211.53,1.50 198.83,1.58 181.76,1.73 164.68,1.88 148.91,1.53 133.14,1.18 119.13,0.40 105.13,-0.37 92.42,-0.79 79.72,-1.21 68.09,-1.46 56.47,-1.71 46.66,-1.53 36.84,-1.36 29.25,-0.94 21.65,-0.52 17.22,-0.09 12.80,0.34 8.52,0.69 4.25,1.05 2.24,1.32 0.22,1.59 0.03,1.60 -0.16,1.60 -0.35,1.56 -0.54,1.52 -0.71,1.43 -0.88,1.34 -1.03,1.22 -1.18,1.09 -1.29,0.93 -1.41,0.77 -1.48,0.59 -1.55,0.41 -1.58,0.22 -1.61,0.03 -1.59,-0.15 -1.57,-0.35 -1.50,-0.53 -1.44,-0.71 -1.33,-0.88 -1.23,-1.04 -1.08,-1.17 -0.94,-1.30 -0.77,-1.40 -0.60,-1.49 -0.41,-1.54 -0.22,-1.59 -0.22,-1.59 L -0.22,-1.59 Z"/></g><g transform="translate(27 184) rotate(0 227.5 6.5)" stroke="none"><path fill="#000000" d="M 0.78,-1.41 Q 0.78,-1.41 3.36,0.03 5.94,1.47 9.78,2.52 13.62,3.56 18.65,4.24 23.69,4.92 30.74,5.80 37.80,6.67 46.19,6.96 54.58,7.24 65.04,7.45 75.51,7.65 87.70,7.42 99.89,7.20 113.98,6.81 128.08,6.42 138.98,6.24 149.87,6.07 168.87,5.68 187.87,5.28 206.28,4.84 224.70,4.41 242.88,3.93 261.06,3.46 279.42,2.96 297.79,2.46 315.65,1.94 333.52,1.41 350.04,1.18 366.56,0.96 381.37,1.17 396.18,1.38 408.26,2.03 420.34,2.68 428.91,3.27 437.49,3.86 442.06,4.40 446.63,4.95 449.46,6.29 452.29,7.63 452.48,10.21 452.66,12.78 452.52,12.94 452.39,13.11 452.20,13.21 452.02,13.32 451.81,13.37 451.60,13.41 451.39,13.39 451.18,13.36 450.99,13.27 450.80,13.18 450.64,13.03 450.49,12.89 450.39,12.70 450.29,12.51 450.26,12.30 450.23,12.09 450.26,11.88 450.30,11.67 450.40,11.48 450.50,11.30 450.66,11.15 450.81,11.01 451.01,10.92 451.20,10.83 451.41,10.81 451.62,10.79 451.83,10.84 452.04,10.88 452.22,10.99 452.40,11.10 452.54,11.27 452.67,11.43 452.75,11.63 452.83,11.83 452.84,12.04 452.85,12.25 452.79,12.45 452.73,12.66 452.61,12.83 452.49,13.01 452.32,13.14 452.15,13.26 451.95,13.33 451.75,13.40 451.53,13.40 451.32,13.39 451.12,13.32 450.92,13.26 450.75,13.13 450.58,13.00 450.46,12.82 450.35,12.64 450.29,12.44 450.24,12.23 450.25,12.02 450.26,11.81 450.34,11.61 450.42,11.41 450.42,11.41 450.42,11.41 450.38,11.28 450.34,11.15 448.19,10.31 446.05,9.48 441.61,8.96 437.18,8.45 428.63,7.91 420.08,7.36 408.10,6.69 396.12,6.03 381.37,5.84 366.62,5.66 350.14,5.85 333.65,6.04 315.78,6.51 297.91,6.97 279.54,7.45 261.18,7.93 242.99,8.41 224.81,8.88 206.38,9.32 187.95,9.76 168.94,10.08 149.94,10.40 139.07,10.55 128.20,10.70 114.08,11.07 99.96,11.44 87.70,11.65 75.44,11.86 64.91,11.73 54.38,11.60 45.83,11.11 37.29,10.63 30.20,9.68 23.10,8.73 17.86,7.83 12.62,6.92 8.51,5.60 4.40,4.27 1.81,2.84 -0.78,1.41 -0.94,1.29 -1.09,1.18 -1.22,1.03 -1.34,0.88 -1.43,0.71 -1.52,0.53 -1.56,0.34 -1.60,0.15 -1.60,-0.03 -1.59,-0.23 -1.54,-0.42 -1.49,-0.60 -1.40,-0.77 -1.30,-0.94 -1.17,-1.09 -1.04,-1.23 -0.87,-1.33 -0.71,-1.44 -0.53,-1.51 -0.34,-1.57 -0.15,-1.59 0.03,-1.61 0.23,-1.58 0.42,-1.55 0.60,-1.48 0.78,-1.41 0.78,-1.41 L 0.78,-1.41 Z"/></g><g transform="translate(157.38613891601562 250.81023120880127) rotate(0 -7.6790771484375 9.576553344726562)" stroke="none"><path fill="#000000" d="M -1.97,1.67 Q -1.97,1.67 -2.62,0.96 -3.27,0.25 -4.86,1.52 -6.46,2.79 -7.17,4.11 -7.88,5.43 -7.33,6.35 -6.77,7.27 -5.35,8.37 -3.93,9.48 -2.59,10.37 -1.26,11.26 -0.20,11.96 0.84,12.66 1.88,13.43 2.92,14.20 3.81,15.02 4.70,15.84 5.60,17.20 6.49,18.57 6.09,20.49 5.69,22.40 4.31,23.10 2.94,23.79 1.05,23.87 -0.83,23.95 -3.36,24.01 -5.90,24.06 -8.64,23.91 -11.39,23.77 -13.59,23.27 -15.79,22.78 -17.08,22.49 -18.36,22.20 -18.84,22.05 -19.31,21.91 -19.56,21.80 -19.80,21.70 -20.01,21.54 -20.23,21.38 -20.39,21.18 -20.56,20.97 -20.68,20.73 -20.79,20.49 -20.84,20.23 -20.90,19.97 -20.89,19.71 -20.88,19.44 -20.80,19.19 -20.73,18.93 -20.60,18.70 -20.46,18.48 -20.28,18.28 -20.10,18.09 -19.87,17.95 -19.65,17.81 -19.40,17.72 -19.15,17.64 -18.88,17.62 -18.62,17.60 -18.36,17.64 -18.10,17.68 -17.08,17.10 -16.07,16.51 -14.25,15.90 -12.43,15.29 -12.09,15.24 -11.74,15.20 -11.40,15.27 -11.06,15.34 -10.76,15.51 -10.46,15.69 -10.23,15.95 -10.00,16.21 -9.87,16.53 -9.74,16.85 -9.71,17.20 -9.69,17.54 -9.78,17.88 -9.86,18.21 -10.05,18.50 -10.24,18.79 -10.52,19.01 -10.79,19.22 -11.12,19.34 -11.44,19.45 -11.79,19.46 -12.14,19.46 -12.47,19.36 -12.80,19.25 -13.08,19.05 -13.36,18.84 -13.56,18.56 -13.76,18.27 -13.85,17.94 -13.95,17.61 -13.94,17.26 -13.93,16.91 -13.80,16.59 -13.68,16.27 -13.46,16.00 -13.24,15.73 -12.94,15.55 -12.65,15.36 -12.31,15.28 -11.97,15.20 -11.63,15.24 -11.28,15.27 -10.97,15.41 -10.65,15.55 -10.39,15.78 -10.14,16.02 -9.97,16.32 -9.80,16.63 -9.74,16.97 -9.68,17.31 -9.73,17.65 -9.78,18.00 -9.94,18.31 -10.10,18.61 -10.35,18.86 -10.59,19.10 -10.91,19.25 -11.22,19.40 -11.22,19.40 -11.22,19.40 -12.87,19.81 -14.52,20.22 -16.92,21.06 -19.31,21.91 -19.56,21.80 -19.80,21.70 -20.01,21.54 -20.23,21.38 -20.39,21.18 -20.56,20.97 -20.68,20.73 -20.79,20.49 -20.84,20.23 -20.90,19.97 -20.89,19.71 -20.88,19.44 -20.80,19.19 -20.73,18.93 -20.60,18.70 -20.46,18.48 -20.28,18.28 -20.10,18.09 -19.87,17.95 -19.65,17.81 -19.40,17.72 -19.15,17.64 -18.88,17.62 -18.62,17.60 -18.36,17.64 -18.10,17.68 -17.65,17.95 -17.21,18.22 -16.14,18.60 -15.08,18.99 -13.21,19.27 -11.35,19.54 -8.85,19.42 -6.34,19.30 -3.81,18.88 -1.27,18.46 0.20,18.27 1.67,18.08 1.48,19.23 1.29,20.39 0.53,19.35 -0.22,18.31 -1.14,17.59 -2.06,16.86 -2.99,16.18 -3.93,15.51 -5.34,14.67 -6.76,13.83 -8.69,12.75 -10.62,11.67 -11.88,10.28 -13.14,8.89 -13.42,7.37 -13.70,5.85 -13.41,4.51 -13.12,3.17 -12.49,1.87 -11.85,0.57 -10.77,-0.64 -9.70,-1.87 -8.53,-2.66 -7.35,-3.45 -6.21,-4.03 -5.07,-4.61 -3.67,-4.83 -2.27,-5.05 -0.74,-4.12 0.78,-3.19 1.37,-2.43 1.97,-1.67 2.14,-1.41 2.31,-1.15 2.42,-0.85 2.52,-0.56 2.55,-0.25 2.58,0.05 2.54,0.36 2.49,0.67 2.38,0.96 2.26,1.25 2.08,1.50 1.89,1.75 1.65,1.96 1.42,2.16 1.14,2.30 0.86,2.43 0.55,2.50 0.25,2.57 -0.05,2.56 -0.36,2.56 -0.67,2.47 -0.97,2.39 -1.24,2.24 -1.51,2.09 -1.74,1.88 -1.97,1.67 -1.97,1.67 L -1.97,1.67 Z"/></g><g transform="translate(166.78622436523438 256.74846363067627) rotate(0 12.577850341796875 12.98272705078125)" stroke="none"><path fill="#000000" d="M 1.67,-1.21 Q 1.67,-1.21 2.69,0.21 3.71,1.64 5.60,5.16 7.49,8.68 8.87,11.84 10.26,14.99 11.19,17.71 12.11,20.44 12.76,21.87 13.41,23.30 13.71,21.19 14.01,19.08 14.45,17.28 14.90,15.48 15.32,13.88 15.74,12.29 16.68,10.55 17.63,8.81 18.96,7.20 20.29,5.58 21.59,3.55 22.89,1.52 23.12,1.28 23.36,1.03 23.66,0.88 23.95,0.72 24.29,0.67 24.62,0.62 24.95,0.68 25.28,0.74 25.58,0.90 25.88,1.06 26.10,1.30 26.33,1.55 26.47,1.86 26.61,2.16 26.64,2.50 26.68,2.83 26.60,3.16 26.53,3.49 26.35,3.77 26.18,4.06 25.92,4.28 25.66,4.49 25.34,4.61 25.03,4.74 24.69,4.75 24.36,4.77 24.03,4.67 23.71,4.58 23.43,4.39 23.16,4.20 22.96,3.93 22.75,3.66 22.65,3.34 22.55,3.02 22.55,2.68 22.55,2.35 22.66,2.03 22.77,1.71 22.98,1.44 23.18,1.18 23.47,0.99 23.75,0.80 24.07,0.72 24.40,0.63 24.73,0.65 25.07,0.67 25.38,0.80 25.69,0.93 25.94,1.15 26.20,1.37 26.37,1.66 26.54,1.95 26.61,2.28 26.68,2.61 26.64,2.94 26.60,3.28 26.46,3.58 26.31,3.88 26.31,3.88 26.31,3.88 24.79,5.93 23.27,7.99 22.19,9.37 21.11,10.75 20.35,12.08 19.59,13.41 19.14,14.86 18.70,16.31 18.31,18.32 17.92,20.33 17.26,22.45 16.60,24.57 15.38,25.79 14.16,27.02 12.95,26.91 11.74,26.79 10.97,25.69 10.20,24.60 9.65,23.06 9.10,21.52 8.13,18.97 7.16,16.43 5.71,13.47 4.27,10.51 2.33,7.27 0.39,4.04 -0.64,2.62 -1.67,1.21 -1.80,0.99 -1.92,0.77 -1.98,0.53 -2.05,0.29 -2.05,0.04 -2.06,-0.20 -2.00,-0.44 -1.95,-0.69 -1.84,-0.91 -1.73,-1.14 -1.56,-1.33 -1.40,-1.52 -1.20,-1.66 -1.00,-1.81 -0.77,-1.90 -0.53,-2.00 -0.29,-2.03 -0.04,-2.07 0.20,-2.04 0.45,-2.02 0.68,-1.93 0.92,-1.85 1.13,-1.71 1.34,-1.58 1.51,-1.39 1.67,-1.21 1.67,-1.21 L 1.67,-1.21 Z"/></g><g transform="translate(220.98672485351562 264.16627979278564) rotate(0 -9.63970947265625 11.60528564453125)" stroke="none"><path fill="#000000" d="M -1.33,1.83 Q -1.33,1.83 -2.16,1.30 -2.98,0.78 -4.27,0.18 -5.56,-0.41 -6.86,-0.62 -8.15,-0.83 -9.59,-0.44 -11.02,-0.06 -12.68,1.04 -14.34,2.15 -15.87,3.51 -17.41,4.87 -17.93,6.01 -18.46,7.14 -18.69,8.24 -18.93,9.33 -17.22,9.99 -15.51,10.66 -13.65,10.64 -11.79,10.63 -9.43,10.46 -7.08,10.29 -5.01,10.09 -2.93,9.89 -1.55,9.47 -0.17,9.06 -0.26,7.69 -0.36,6.31 -0.52,5.88 -0.67,5.45 -0.69,5.12 -0.70,4.80 -0.64,4.48 -0.58,4.16 -0.44,3.87 -0.30,3.57 -0.09,3.32 0.10,3.07 0.36,2.87 0.62,2.67 0.92,2.55 1.21,2.42 1.53,2.36 1.86,2.31 2.18,2.34 2.50,2.36 2.81,2.46 3.12,2.56 3.40,2.74 3.67,2.91 3.90,3.14 4.12,3.38 4.29,3.66 4.45,3.94 4.54,4.25 4.63,4.56 3.98,6.03 3.33,7.49 2.68,9.87 2.02,12.25 1.40,14.42 0.79,16.59 0.04,18.84 -0.70,21.10 -1.44,22.94 -2.19,24.78 -3.28,26.50 -4.37,28.21 -6.53,28.44 -8.69,28.67 -10.87,28.38 -13.04,28.09 -14.79,27.80 -16.55,27.51 -19.25,26.28 -21.95,25.05 -22.21,24.81 -22.46,24.57 -22.62,24.27 -22.78,23.96 -22.84,23.62 -22.90,23.28 -22.84,22.94 -22.78,22.59 -22.62,22.29 -22.46,21.98 -22.21,21.74 -21.96,21.51 -21.64,21.36 -21.33,21.21 -20.99,21.18 -20.64,21.14 -20.30,21.21 -19.96,21.29 -19.67,21.46 -19.37,21.64 -19.15,21.91 -18.92,22.17 -18.79,22.49 -18.66,22.81 -18.65,23.16 -18.63,23.50 -18.72,23.84 -18.81,24.17 -19.01,24.46 -19.20,24.75 -19.47,24.96 -19.75,25.17 -20.08,25.28 -20.41,25.39 -20.75,25.39 -21.10,25.39 -21.43,25.28 -21.76,25.17 -22.03,24.96 -22.31,24.75 -22.50,24.46 -22.70,24.18 -22.79,23.84 -22.88,23.51 -22.86,23.16 -22.85,22.82 -22.72,22.50 -22.59,22.17 -22.37,21.91 -22.14,21.65 -21.85,21.47 -21.55,21.29 -21.21,21.21 -20.87,21.14 -20.53,21.18 -20.18,21.21 -19.87,21.36 -19.56,21.50 -19.56,21.50 -19.56,21.50 -17.71,22.50 -15.86,23.50 -14.28,23.78 -12.71,24.05 -10.71,24.11 -8.72,24.16 -7.30,23.76 -5.87,23.35 -5.26,21.69 -4.64,20.02 -4.18,17.84 -3.72,15.66 -3.43,13.40 -3.14,11.14 -2.82,9.21 -2.49,7.28 -1.58,6.36 -0.67,5.45 -0.69,5.12 -0.70,4.80 -0.64,4.48 -0.58,4.16 -0.44,3.87 -0.30,3.57 -0.09,3.32 0.10,3.07 0.36,2.87 0.62,2.67 0.92,2.55 1.21,2.42 1.53,2.36 1.85,2.31 2.18,2.34 2.50,2.36 2.81,2.46 3.12,2.56 3.39,2.74 3.67,2.91 3.90,3.14 4.12,3.38 4.29,3.66 4.45,3.94 4.54,4.25 4.63,4.56 4.65,4.57 4.67,4.57 4.66,5.80 4.66,7.02 4.39,8.27 4.13,9.53 3.34,10.86 2.55,12.19 1.19,12.75 -0.15,13.32 -1.28,13.45 -2.42,13.58 -4.50,13.96 -6.58,14.34 -9.02,14.77 -11.46,15.21 -13.61,15.48 -15.76,15.75 -17.65,15.56 -19.54,15.38 -20.81,14.56 -22.07,13.75 -22.75,12.42 -23.42,11.10 -23.34,9.64 -23.27,8.17 -22.79,6.67 -22.31,5.16 -21.40,3.53 -20.48,1.90 -18.87,0.08 -17.26,-1.73 -15.02,-3.55 -12.77,-5.37 -11.38,-5.76 -9.98,-6.15 -8.62,-6.19 -7.26,-6.24 -5.24,-5.63 -3.22,-5.03 -1.70,-4.05 -0.17,-3.08 0.57,-2.46 1.33,-1.83 1.53,-1.65 1.73,-1.46 1.88,-1.23 2.03,-1.00 2.12,-0.74 2.21,-0.49 2.24,-0.21 2.27,0.05 2.23,0.32 2.19,0.59 2.08,0.85 1.98,1.10 1.82,1.32 1.66,1.54 1.45,1.72 1.24,1.90 0.99,2.02 0.75,2.14 0.48,2.20 0.21,2.26 -0.05,2.25 -0.32,2.24 -0.59,2.17 -0.85,2.10 -1.09,1.97 -1.33,1.83 -1.33,1.83 L -1.33,1.83 Z"/></g><g transform="translate(248.11605834960938 269.8246660232544) rotate(0 -0.718170166015625 -1.6913299560546875)" stroke="none"><path fill="#000000" d="M -1.36,2.07 Q -1.36,2.07 -2.26,1.53 -3.15,0.99 -4.05,0.13 -4.96,-0.73 -5.78,-1.90 -6.61,-3.07 -7.49,-4.59 -8.37,-6.11 -9.26,-7.64 -10.14,-9.18 -10.87,-11.12 -11.59,-13.06 -11.11,-14.26 -10.62,-15.46 -9.10,-16.30 -7.57,-17.14 -6.14,-17.48 -4.71,-17.82 -2.67,-17.60 -0.64,-17.39 1.60,-16.37 3.85,-15.36 4.99,-14.93 6.12,-14.51 7.23,-13.55 8.33,-12.59 9.08,-11.10 9.82,-9.60 10.09,-7.65 10.35,-5.70 10.22,-3.51 10.08,-1.31 9.59,0.96 9.10,3.24 8.14,5.30 7.19,7.37 6.53,8.76 5.87,10.14 5.02,11.58 4.17,13.02 3.94,13.26 3.72,13.50 3.43,13.65 3.15,13.81 2.83,13.86 2.50,13.92 2.18,13.87 1.86,13.82 1.57,13.67 1.28,13.51 1.05,13.28 0.83,13.04 0.69,12.75 0.55,12.45 0.51,12.13 0.47,11.80 0.54,11.48 0.61,11.17 0.78,10.88 0.94,10.60 1.19,10.39 1.44,10.18 1.74,10.05 2.04,9.93 2.37,9.91 2.69,9.89 3.01,9.98 3.32,10.06 3.60,10.24 3.87,10.43 4.07,10.68 4.27,10.94 4.37,11.25 4.48,11.56 4.48,11.89 4.48,12.21 4.38,12.52 4.28,12.83 4.08,13.09 3.89,13.36 3.62,13.54 3.35,13.73 3.03,13.81 2.72,13.90 2.39,13.89 2.07,13.87 1.76,13.75 1.46,13.64 1.21,13.43 0.96,13.22 0.79,12.94 0.62,12.66 0.55,12.34 0.48,12.02 0.51,11.70 0.54,11.37 0.68,11.08 0.81,10.78 0.81,10.78 0.81,10.78 1.61,9.56 2.40,8.33 3.11,7.10 3.82,5.87 4.52,4.21 5.22,2.55 5.44,0.58 5.66,-1.38 5.58,-3.23 5.50,-5.08 5.34,-6.36 5.18,-7.65 4.67,-8.93 4.17,-10.21 3.18,-10.66 2.19,-11.11 0.46,-11.66 -1.25,-12.20 -2.46,-12.34 -3.66,-12.48 -4.87,-12.10 -6.07,-11.72 -5.08,-10.27 -4.09,-8.81 -3.15,-7.43 -2.20,-6.06 -1.25,-4.66 -0.31,-3.27 0.52,-2.67 1.36,-2.07 1.59,-1.88 1.82,-1.69 1.99,-1.44 2.17,-1.20 2.28,-0.92 2.40,-0.65 2.44,-0.35 2.48,-0.05 2.45,0.24 2.42,0.53 2.32,0.82 2.22,1.10 2.06,1.35 1.89,1.60 1.67,1.80 1.45,2.01 1.19,2.15 0.93,2.30 0.64,2.38 0.35,2.46 0.05,2.46 -0.24,2.47 -0.53,2.41 -0.82,2.34 -1.09,2.21 -1.36,2.07 -1.36,2.07 L -1.36,2.07 Z"/></g><g transform="translate(242.37466430664062 299.42043018341064) rotate(0 0.616607666015625 -1.607757568359375)" stroke="none"><path fill="#000000" d="M -2.18,-0.83 Q -2.18,-0.83 0.20,-0.37 2.58,0.09 2.38,0.43 2.18,0.77 1.88,1.03 1.59,1.29 1.22,1.44 0.85,1.59 0.46,1.62 0.06,1.65 -0.31,1.55 -0.69,1.44 -1.02,1.23 -1.35,1.01 -1.60,0.70 -1.84,0.38 -1.97,0.01 -2.10,-0.35 -2.11,-0.75 -2.12,-1.15 -1.99,-1.52 -1.87,-1.90 -1.64,-2.22 -1.40,-2.54 -1.08,-2.76 -0.75,-2.99 -0.37,-3.10 0.00,-3.21 0.40,-3.20 0.79,-3.18 1.16,-3.04 1.53,-2.90 1.84,-2.64 2.14,-2.39 2.35,-2.05 2.56,-1.72 2.65,-1.33 2.74,-0.94 2.70,-0.55 2.66,-0.16 2.50,0.20 2.34,0.56 2.07,0.85 1.80,1.14 1.46,1.33 1.11,1.52 0.72,1.59 0.33,1.66 -0.05,1.60 -0.45,1.54 -0.80,1.36 -1.15,1.18 -1.43,0.89 -1.70,0.61 -1.87,0.25 -2.04,-0.10 -2.09,-0.49 -2.14,-0.88 -2.06,-1.27 -1.98,-1.66 -1.98,-1.66 -1.98,-1.66 0.09,-0.41 2.18,0.83 2.05,1.08 1.92,1.33 1.73,1.54 1.54,1.75 1.31,1.91 1.07,2.07 0.81,2.17 0.55,2.27 0.27,2.30 -0.00,2.33 -0.28,2.30 -0.56,2.26 -0.83,2.16 -1.09,2.06 -1.32,1.90 -1.55,1.74 -1.74,1.53 -1.93,1.32 -2.06,1.07 -2.19,0.82 -2.25,0.54 -2.32,0.27 -2.32,-0.00 -2.32,-0.29 -2.25,-0.56 -2.18,-0.83 -2.18,-0.83 L -2.18,-0.83 Z"/></g></svg>