<svg version="1.1" xmlns="http://www.w3.org/2000/svg" viewBox="0 0 628.1414796045758 479.4575908034571" width="628.1414796045758" height="479.4575908034571" filter="invert(93%) hue-rotate(180deg)">
  <!-- svg-source:excalidraw -->
  
  <defs>
    <style>
      @font-face {
        font-family: "Virgil";
        src: url("https://unpkg.com/@zsviczian/excalidraw@0.12.0-obsidian-9/dist/excalidraw-assets/Virgil.woff2");
      }
      @font-face {
        font-family: "Cascadia";
        src: url("https://unpkg.com/@zsviczian/excalidraw@0.12.0-obsidian-9/dist/excalidraw-assets/Cascadia.woff2");
      }
    </style>
  </defs>
  <rect x="0" y="0" width="628.1414796045758" height="479.4575908034571" fill="#ffffff"/><g transform="translate(30.718246800156066 100.18530960067858) rotate(0 32.29609060024302 -4.8748816000367015)" stroke="none"><path fill="#000000" d="M 1.14,1.14 Q 1.14,1.14 -0.14,2.64 -1.43,4.14 -2.07,5.47 -2.71,6.79 -0.80,6.89 1.11,6.98 5.49,4.71 9.88,2.44 15.30,-1.57 20.71,-5.58 26.22,-10.37 31.72,-15.15 35.76,-19.88 39.79,-24.60 41.78,-28.87 43.77,-33.14 44.26,-35.98 44.75,-38.83 43.49,-40.31 42.23,-41.80 39.71,-42.34 37.19,-42.88 33.64,-41.20 30.09,-39.52 27.16,-37.52 24.22,-35.52 19.33,-27.22 14.45,-18.91 11.00,-8.80 7.55,1.30 7.82,9.63 8.10,17.96 12.73,22.44 17.36,26.92 25.55,28.01 33.74,29.10 43.04,27.69 52.33,26.29 57.51,25.17 62.68,24.06 62.89,24.04 63.10,24.01 63.31,24.06 63.52,24.10 63.70,24.21 63.88,24.32 64.02,24.48 64.16,24.64 64.24,24.84 64.32,25.03 64.33,25.25 64.35,25.46 64.29,25.66 64.24,25.87 64.12,26.04 64.00,26.22 63.83,26.35 63.66,26.48 63.46,26.55 63.26,26.62 63.05,26.62 62.84,26.62 62.63,26.56 62.43,26.49 62.26,26.36 62.09,26.23 61.97,26.06 61.85,25.88 61.79,25.68 61.74,25.47 61.75,25.26 61.76,25.05 61.83,24.85 61.91,24.65 62.05,24.49 62.18,24.33 62.36,24.22 62.55,24.11 62.75,24.06 62.96,24.01 63.17,24.04 63.38,24.06 63.58,24.14 63.77,24.23 63.93,24.38 64.08,24.52 64.18,24.71 64.28,24.90 64.32,25.11 64.35,25.32 64.32,25.53 64.29,25.74 64.19,25.92 64.09,26.11 63.94,26.26 63.78,26.41 63.59,26.50 63.40,26.59 63.40,26.59 63.40,26.59 58.24,28.42 53.07,30.24 42.99,32.46 32.91,34.67 23.54,32.75 14.17,30.82 8.80,24.89 3.43,18.97 3.27,9.42 3.11,-0.12 6.88,-10.65 10.65,-21.18 16.15,-30.10 21.65,-39.02 25.02,-41.29 28.39,-43.55 33.08,-45.31 37.77,-47.07 41.45,-45.82 45.13,-44.56 46.92,-41.82 48.71,-39.07 48.11,-35.26 47.52,-31.45 45.32,-26.65 43.12,-21.86 38.95,-16.80 34.77,-11.74 29.20,-6.69 23.63,-1.64 17.83,2.64 12.03,6.93 6.52,9.36 1.01,11.78 -1.96,11.23 -4.94,10.67 -5.80,8.03 -6.67,5.39 -5.42,3.42 -4.16,1.46 -2.65,0.15 -1.14,-1.14 -0.98,-1.26 -0.83,-1.38 -0.65,-1.46 -0.48,-1.54 -0.28,-1.57 -0.09,-1.61 0.09,-1.59 0.29,-1.58 0.47,-1.52 0.66,-1.47 0.82,-1.37 0.99,-1.27 1.13,-1.13 1.27,-0.99 1.37,-0.82 1.47,-0.66 1.52,-0.47 1.58,-0.29 1.59,-0.09 1.61,0.09 1.57,0.28 1.54,0.48 1.46,0.65 1.38,0.83 1.26,0.98 1.14,1.14 1.14,1.14 L 1.14,1.14 Z"/></g><g transform="translate(109.93507280075198 70.93602000045848) rotate(0 13.405924400100844 32.90545080024759)" stroke="none"><path fill="#000000" d="M 1.14,1.14 Q 1.14,1.14 0.10,2.20 -0.92,3.27 -1.67,4.11 -2.42,4.96 -2.59,5.09 -2.76,5.23 -2.96,5.32 -3.16,5.40 -3.37,5.44 -3.58,5.48 -3.80,5.47 -4.01,5.46 -4.22,5.39 -4.43,5.33 -4.61,5.22 -4.80,5.10 -4.95,4.95 -5.10,4.80 -5.22,4.61 -5.33,4.43 -5.39,4.22 -5.46,4.01 -5.47,3.80 -5.48,3.58 -5.44,3.37 -5.40,3.16 -5.31,2.96 -5.23,2.76 -5.09,2.59 -4.96,2.42 -3.83,3.53 -2.70,4.64 -2.92,4.82 -3.15,4.99 -3.41,5.11 -3.67,5.22 -3.95,5.28 -4.23,5.33 -4.51,5.31 -4.80,5.29 -5.07,5.21 -5.34,5.12 -5.58,4.98 -5.83,4.83 -6.03,4.63 -6.23,4.43 -6.38,4.18 -6.53,3.94 -6.61,3.67 -6.69,3.39 -6.71,3.11 -6.73,2.82 -6.68,2.54 -6.63,2.26 -6.51,2.00 -6.39,1.74 -6.22,1.52 -6.04,1.30 -4.57,0.52 -3.11,-0.25 0.12,0.52 3.36,1.30 7.37,5.46 11.38,9.62 15.18,17.53 18.97,25.43 21.85,33.35 24.72,41.27 26.98,47.02 29.24,52.77 30.53,55.91 31.82,59.05 31.42,62.25 31.03,65.45 30.89,65.61 30.75,65.77 30.56,65.87 30.38,65.98 30.17,66.02 29.96,66.06 29.75,66.03 29.54,66.00 29.35,65.90 29.16,65.81 29.01,65.66 28.86,65.51 28.76,65.32 28.67,65.13 28.64,64.92 28.61,64.71 28.65,64.50 28.69,64.29 28.80,64.10 28.90,63.92 29.06,63.78 29.22,63.64 29.42,63.55 29.61,63.47 29.82,63.45 30.04,63.44 30.24,63.49 30.45,63.54 30.63,63.65 30.81,63.77 30.94,63.94 31.07,64.10 31.14,64.30 31.22,64.50 31.22,64.71 31.23,64.93 31.16,65.13 31.10,65.33 30.98,65.50 30.85,65.68 30.68,65.80 30.51,65.92 30.30,65.98 30.10,66.05 29.89,66.04 29.68,66.03 29.48,65.96 29.28,65.89 29.11,65.75 28.95,65.62 28.83,65.44 28.72,65.26 28.67,65.05 28.62,64.85 28.63,64.64 28.65,64.42 28.74,64.23 28.82,64.03 28.82,64.03 28.82,64.03 28.22,62.42 27.63,60.81 26.26,57.66 24.90,54.50 22.56,48.73 20.23,42.96 17.25,35.31 14.27,27.66 10.87,20.37 7.48,13.08 4.47,9.52 1.46,5.97 -0.61,5.30 -2.70,4.64 -2.92,4.82 -3.15,4.99 -3.41,5.11 -3.67,5.22 -3.95,5.28 -4.23,5.33 -4.51,5.31 -4.80,5.29 -5.07,5.21 -5.34,5.12 -5.58,4.98 -5.83,4.83 -6.03,4.63 -6.23,4.43 -6.38,4.18 -6.53,3.94 -6.61,3.67 -6.69,3.39 -6.71,3.11 -6.73,2.82 -6.68,2.54 -6.63,2.26 -6.51,2.00 -6.39,1.74 -6.22,1.52 -6.04,1.30 -4.23,3.13 -2.42,4.96 -2.59,5.09 -2.76,5.23 -2.96,5.31 -3.16,5.40 -3.37,5.44 -3.58,5.48 -3.80,5.47 -4.01,5.46 -4.22,5.39 -4.43,5.33 -4.61,5.22 -4.80,5.10 -4.95,4.95 -5.10,4.80 -5.22,4.61 -5.33,4.43 -5.39,4.22 -5.46,4.01 -5.47,3.80 -5.48,3.58 -5.44,3.37 -5.40,3.16 -5.32,2.96 -5.23,2.76 -5.09,2.59 -4.96,2.42 -4.11,1.67 -3.27,0.92 -2.20,-0.10 -1.14,-1.14 -0.98,-1.26 -0.83,-1.38 -0.65,-1.46 -0.48,-1.54 -0.28,-1.57 -0.09,-1.61 0.09,-1.59 0.29,-1.58 0.47,-1.52 0.66,-1.47 0.82,-1.37 0.99,-1.27 1.13,-1.13 1.27,-0.99 1.37,-0.82 1.47,-0.66 1.52,-0.47 1.58,-0.29 1.59,-0.09 1.61,0.09 1.57,0.28 1.54,0.48 1.46,0.65 1.38,0.83 1.26,0.98 1.14,1.14 1.14,1.14 L 1.14,1.14 Z"/></g><g transform="translate(101.51700683881973 135.26186175331625) rotate(0 31.68673040023839 -35.342891600265915)" stroke="none"><path fill="#000000" d="M -0.59,-1.49 Q -0.59,-1.49 0.99,-2.43 2.59,-3.36 7.33,-9.49 12.07,-15.62 18.84,-24.21 25.62,-32.79 34.54,-43.76 43.47,-54.73 48.53,-59.99 53.58,-65.24 56.25,-67.36 58.92,-69.47 59.10,-69.59 59.27,-69.71 59.48,-69.76 59.68,-69.82 59.89,-69.81 60.10,-69.80 60.30,-69.72 60.50,-69.65 60.66,-69.51 60.82,-69.37 60.93,-69.19 61.05,-69.01 61.09,-68.80 61.14,-68.59 61.12,-68.38 61.09,-68.17 61.01,-67.98 60.92,-67.78 60.77,-67.63 60.63,-67.47 60.44,-67.37 60.25,-67.27 60.04,-67.24 59.83,-67.20 59.62,-67.24 59.41,-67.27 59.22,-67.37 59.04,-67.47 58.89,-67.62 58.74,-67.78 58.65,-67.97 58.56,-68.16 58.54,-68.37 58.52,-68.58 58.56,-68.79 58.61,-69.00 58.71,-69.18 58.82,-69.36 58.98,-69.50 59.15,-69.64 59.34,-69.72 59.54,-69.80 59.75,-69.81 59.96,-69.82 60.17,-69.77 60.37,-69.71 60.55,-69.59 60.73,-69.47 60.86,-69.31 60.99,-69.14 61.05,-68.94 61.12,-68.73 61.12,-68.52 61.12,-68.31 61.06,-68.11 60.99,-67.91 60.86,-67.74 60.73,-67.57 60.73,-67.57 60.73,-67.57 58.61,-65.10 56.49,-62.64 51.92,-57.13 47.35,-51.62 38.58,-40.55 29.81,-29.48 22.97,-20.83 16.13,-12.19 10.27,-5.81 4.41,0.56 2.50,1.02 0.59,1.49 0.41,1.54 0.22,1.59 0.02,1.60 -0.16,1.60 -0.35,1.56 -0.54,1.51 -0.71,1.43 -0.89,1.34 -1.04,1.21 -1.18,1.09 -1.30,0.93 -1.41,0.77 -1.48,0.59 -1.55,0.41 -1.58,0.22 -1.61,0.02 -1.59,-0.16 -1.57,-0.35 -1.50,-0.54 -1.44,-0.72 -1.33,-0.88 -1.22,-1.04 -1.08,-1.18 -0.94,-1.31 -0.76,-1.40 -0.59,-1.49 -0.59,-1.49 L -0.59,-1.49 Z"/></g><g transform="translate(202.55782320144885 83.12322400055018) rotate(0 -6.093602000045848 24.983768200187995)" stroke="none"><path fill="#000000" d="M -1.49,0.59 Q -1.49,0.59 -2.61,-0.90 -3.72,-2.40 -6.19,-2.81 -8.66,-3.23 -11.13,-1.67 -13.60,-0.12 -16.13,1.83 -18.66,3.78 -22.36,10.23 -26.07,16.68 -27.66,23.45 -29.24,30.22 -28.94,34.80 -28.65,39.37 -24.15,43.63 -19.66,47.88 -9.39,47.53 0.86,47.18 6.77,46.03 12.68,44.88 12.90,44.86 13.11,44.84 13.31,44.89 13.52,44.94 13.70,45.05 13.88,45.17 14.01,45.33 14.15,45.50 14.22,45.70 14.30,45.90 14.30,46.11 14.31,46.32 14.25,46.52 14.19,46.73 14.07,46.90 13.94,47.07 13.77,47.20 13.60,47.32 13.40,47.39 13.19,47.45 12.98,47.45 12.77,47.44 12.57,47.37 12.37,47.30 12.20,47.17 12.04,47.03 11.92,46.86 11.81,46.68 11.75,46.47 11.70,46.27 11.72,46.05 11.73,45.84 11.82,45.65 11.90,45.45 12.04,45.29 12.18,45.13 12.36,45.03 12.55,44.92 12.76,44.88 12.96,44.84 13.18,44.87 13.39,44.89 13.58,44.99 13.77,45.08 13.92,45.23 14.07,45.38 14.17,45.57 14.26,45.76 14.29,45.97 14.32,46.18 14.28,46.39 14.24,46.60 14.14,46.78 14.04,46.97 13.88,47.11 13.72,47.25 13.53,47.34 13.33,47.42 13.33,47.42 13.33,47.42 7.17,49.36 1.01,51.30 -10.52,51.62 -22.07,51.94 -27.67,46.23 -33.28,40.52 -33.65,34.84 -34.02,29.16 -32.24,21.69 -30.47,14.22 -26.26,6.95 -22.06,-0.32 -19.15,-2.61 -16.25,-4.91 -12.54,-6.76 -8.83,-8.61 -5.75,-8.27 -2.68,-7.92 -0.88,-6.26 0.92,-4.60 1.21,-2.60 1.49,-0.59 1.54,-0.41 1.59,-0.22 1.60,-0.02 1.60,0.16 1.56,0.35 1.51,0.54 1.43,0.71 1.34,0.89 1.21,1.04 1.09,1.18 0.93,1.30 0.77,1.41 0.59,1.48 0.41,1.55 0.22,1.58 0.02,1.61 -0.16,1.59 -0.35,1.57 -0.54,1.50 -0.72,1.44 -0.88,1.33 -1.04,1.22 -1.18,1.08 -1.31,0.94 -1.40,0.76 -1.49,0.59 -1.49,0.59 L -1.49,0.59 Z"/></g><g transform="translate(270.80616560196233 84.34194440055938) rotate(0 -13.405924400100844 20.718246800155868)" stroke="none"><path fill="#000000" d="M -1.23,1.03 Q -1.23,1.03 -3.33,-0.77 -5.43,-2.59 -6.56,-3.76 -7.69,-4.93 -8.77,-6.03 -9.84,-7.13 -11.20,-7.31 -12.55,-7.48 -14.81,-7.68 -17.06,-7.87 -20.04,-6.75 -23.01,-5.64 -25.86,-2.66 -28.70,0.30 -31.26,8.29 -33.82,16.29 -34.23,24.13 -34.65,31.97 -34.20,36.52 -33.75,41.07 -32.02,43.40 -30.28,45.73 -26.64,44.43 -22.99,43.14 -19.24,39.10 -15.49,35.06 -12.06,29.29 -8.64,23.52 -6.52,17.32 -4.39,11.12 -3.11,6.05 -1.82,0.98 -1.53,-1.54 -1.23,-4.07 -1.13,-4.32 -1.04,-4.57 -0.89,-4.79 -0.73,-5.01 -0.53,-5.19 -0.33,-5.37 -0.09,-5.49 0.14,-5.62 0.40,-5.68 0.66,-5.74 0.93,-5.74 1.19,-5.74 1.45,-5.68 1.71,-5.61 1.95,-5.49 2.19,-5.36 2.39,-5.18 2.59,-5.00 2.74,-4.78 2.89,-4.56 2.99,-4.31 3.08,-4.06 3.11,-3.79 3.15,-3.53 3.11,-3.26 3.08,-2.99 3.33,0.76 3.58,4.52 5.46,12.03 7.34,19.55 8.76,24.21 10.18,28.86 11.26,31.23 12.35,33.60 12.43,33.80 12.51,33.99 12.53,34.20 12.54,34.42 12.49,34.62 12.43,34.83 12.32,35.01 12.20,35.18 12.03,35.31 11.87,35.45 11.67,35.52 11.47,35.59 11.25,35.59 11.04,35.59 10.84,35.53 10.64,35.46 10.46,35.34 10.29,35.21 10.17,35.04 10.05,34.86 9.99,34.66 9.93,34.46 9.94,34.24 9.95,34.03 10.02,33.83 10.10,33.63 10.23,33.47 10.37,33.31 10.55,33.19 10.73,33.08 10.93,33.03 11.14,32.98 11.35,33.00 11.56,33.02 11.76,33.11 11.95,33.20 12.11,33.34 12.27,33.48 12.37,33.67 12.47,33.86 12.51,34.07 12.55,34.27 12.51,34.48 12.48,34.70 12.39,34.88 12.29,35.07 12.14,35.22 11.99,35.37 11.79,35.46 11.60,35.55 11.39,35.58 11.18,35.61 10.97,35.56 10.77,35.52 10.58,35.42 10.40,35.31 10.26,35.15 10.12,34.99 10.12,34.99 10.12,34.99 8.27,32.65 6.42,30.31 4.24,25.53 2.05,20.76 0.40,12.68 -1.25,4.60 -1.18,1.97 -1.10,-0.66 -1.17,-2.37 -1.23,-4.07 -1.13,-4.32 -1.04,-4.57 -0.89,-4.79 -0.73,-5.01 -0.53,-5.19 -0.33,-5.37 -0.09,-5.49 0.14,-5.62 0.40,-5.68 0.66,-5.74 0.93,-5.74 1.19,-5.74 1.45,-5.68 1.71,-5.61 1.95,-5.49 2.19,-5.36 2.39,-5.18 2.59,-5.00 2.74,-4.78 2.89,-4.56 2.99,-4.31 3.08,-4.06 3.11,-3.79 3.15,-3.53 3.11,-3.26 3.08,-2.99 2.98,-0.42 2.88,2.14 1.58,7.44 0.27,12.73 -2.03,19.38 -4.34,26.04 -8.05,32.36 -11.76,38.68 -16.56,43.31 -21.35,47.94 -26.28,48.90 -31.21,49.86 -34.80,45.95 -38.39,42.04 -38.93,36.87 -39.47,31.70 -38.92,23.26 -38.37,14.83 -35.36,5.95 -32.34,-2.92 -28.68,-6.66 -25.01,-10.40 -20.91,-11.90 -16.81,-13.40 -13.94,-13.15 -11.08,-12.90 -8.64,-12.03 -6.20,-11.16 -4.94,-9.80 -3.69,-8.45 -2.63,-7.13 -1.56,-5.81 -0.16,-3.42 1.23,-1.03 1.34,-0.86 1.45,-0.70 1.51,-0.52 1.57,-0.33 1.59,-0.14 1.61,0.04 1.58,0.24 1.55,0.43 1.48,0.61 1.40,0.79 1.29,0.94 1.17,1.10 1.02,1.23 0.87,1.35 0.70,1.44 0.52,1.52 0.33,1.56 0.14,1.60 -0.04,1.60 -0.24,1.59 -0.43,1.54 -0.61,1.49 -0.78,1.39 -0.95,1.29 -1.09,1.16 -1.24,1.03 -1.24,1.03 L -1.23,1.03 Z"/></g><g transform="translate(303.71161640221 12.43744080001835) rotate(0 1.2187204000092038 60.936020000458484)" stroke="none"><path fill="#000000" d="M 1.61,0 Q 1.61,0 1.99,3.15 2.38,6.30 2.76,15.30 3.14,24.30 3.33,37.99 3.51,51.68 3.53,66.26 3.54,80.83 4.01,92.57 4.48,104.31 4.49,110.05 4.51,115.79 4.48,116.00 4.46,116.21 4.37,116.40 4.28,116.59 4.13,116.75 3.99,116.90 3.80,117.00 3.61,117.10 3.40,117.14 3.19,117.17 2.98,117.14 2.77,117.10 2.59,117.00 2.40,116.90 2.25,116.75 2.11,116.59 2.02,116.40 1.93,116.21 1.91,116.00 1.88,115.79 1.93,115.58 1.97,115.37 2.08,115.19 2.19,115.01 2.36,114.87 2.52,114.73 2.71,114.65 2.91,114.58 3.12,114.56 3.34,114.55 3.54,114.61 3.75,114.67 3.92,114.79 4.10,114.90 4.23,115.07 4.35,115.24 4.42,115.44 4.49,115.65 4.49,115.86 4.49,116.07 4.42,116.27 4.35,116.47 4.23,116.64 4.10,116.81 3.92,116.93 3.75,117.05 3.54,117.11 3.34,117.16 3.12,117.15 2.91,117.14 2.71,117.06 2.52,116.98 2.35,116.85 2.19,116.71 2.08,116.53 1.97,116.34 1.93,116.14 1.88,115.93 1.88,115.93 1.88,115.93 1.28,110.24 0.67,104.55 -0.30,92.70 -1.29,80.85 -1.40,66.29 -1.52,51.74 -1.63,38.12 -1.74,24.49 -2.06,15.40 -2.38,6.30 -1.99,3.15 -1.61,0 -1.59,-0.19 -1.56,-0.38 -1.49,-0.56 -1.42,-0.75 -1.31,-0.91 -1.20,-1.07 -1.06,-1.19 -0.91,-1.32 -0.74,-1.41 -0.57,-1.50 -0.38,-1.55 -0.19,-1.60 0.00,-1.60 0.19,-1.60 0.38,-1.55 0.57,-1.50 0.74,-1.41 0.91,-1.32 1.06,-1.19 1.20,-1.07 1.31,-0.91 1.42,-0.74 1.49,-0.56 1.56,-0.38 1.59,-0.19 1.61,0.00 1.61,0.00 L 1.61,0 Z"/></g><g transform="translate(340.2732284024851 69.71729960044934) rotate(0 0.6093602000046303 29.249289600220067)" stroke="none"><path fill="#000000" d="M 1.61,0 Q 1.61,0 1.87,3.50 2.14,7.00 2.21,14.45 2.27,21.89 2.52,31.68 2.76,41.46 2.53,46.71 2.31,51.95 2.28,52.16 2.25,52.37 2.16,52.56 2.06,52.75 1.91,52.90 1.76,53.05 1.57,53.15 1.38,53.24 1.17,53.27 0.96,53.30 0.75,53.26 0.54,53.22 0.36,53.12 0.17,53.01 0.03,52.85 -0.10,52.70 -0.19,52.50 -0.27,52.31 -0.29,52.09 -0.31,51.88 -0.25,51.68 -0.20,51.47 -0.09,51.29 0.01,51.11 0.18,50.98 0.35,50.85 0.55,50.77 0.74,50.70 0.96,50.69 1.17,50.69 1.37,50.75 1.58,50.81 1.75,50.93 1.92,51.06 2.05,51.23 2.17,51.40 2.23,51.61 2.29,51.81 2.29,52.02 2.28,52.23 2.21,52.43 2.14,52.63 2.00,52.80 1.87,52.96 1.69,53.08 1.51,53.19 1.31,53.25 1.10,53.30 0.89,53.28 0.68,53.26 0.48,53.18 0.29,53.10 0.13,52.95 -0.02,52.81 -0.12,52.63 -0.23,52.44 -0.27,52.23 -0.31,52.02 -0.31,52.03 -0.31,52.03 -0.83,46.82 -1.36,41.61 -1.82,31.75 -2.27,21.89 -2.21,14.45 -2.14,7.00 -1.87,3.50 -1.61,0 -1.59,-0.19 -1.56,-0.38 -1.49,-0.56 -1.42,-0.75 -1.31,-0.91 -1.20,-1.07 -1.06,-1.19 -0.91,-1.32 -0.74,-1.41 -0.57,-1.50 -0.38,-1.55 -0.19,-1.60 0.00,-1.60 0.19,-1.60 0.38,-1.55 0.57,-1.50 0.74,-1.41 0.91,-1.32 1.06,-1.19 1.20,-1.07 1.31,-0.91 1.42,-0.74 1.49,-0.56 1.56,-0.38 1.59,-0.19 1.61,0.00 1.61,0.00 L 1.61,0 Z"/></g><g transform="translate(348.80427120254933 28.280806000137545) rotate(0 3.6561612000275545 2.4374408000183507)" stroke="none"><path fill="#000000" d="M -1.44,0.72 Q -1.44,0.72 -2.14,0.19 -2.85,-0.32 -2.95,-0.59 -3.05,-0.87 -3.07,-1.16 -3.10,-1.44 -3.06,-1.73 -3.02,-2.02 -2.91,-2.29 -2.81,-2.56 -2.64,-2.79 -2.47,-3.03 -2.25,-3.22 -2.02,-3.41 -1.76,-3.54 -1.51,-3.66 -1.22,-3.73 -0.94,-3.79 -0.65,-3.79 -0.36,-3.78 -0.08,-3.71 0.19,-3.63 0.45,-3.49 0.70,-3.35 0.91,-3.15 1.13,-2.96 1.29,-2.72 1.45,-2.47 3.51,0.46 5.56,3.41 5.68,3.59 5.80,3.76 5.85,3.97 5.91,4.18 5.90,4.39 5.88,4.60 5.80,4.80 5.72,4.99 5.58,5.15 5.44,5.31 5.26,5.42 5.08,5.53 4.87,5.57 4.66,5.62 4.45,5.59 4.24,5.57 4.05,5.48 3.86,5.38 3.70,5.24 3.55,5.09 3.45,4.90 3.35,4.71 3.32,4.50 3.29,4.29 3.33,4.08 3.36,3.87 3.46,3.69 3.56,3.50 3.72,3.36 3.88,3.21 4.07,3.12 4.26,3.04 4.47,3.01 4.69,2.99 4.89,3.04 5.10,3.09 5.28,3.20 5.46,3.31 5.60,3.48 5.73,3.64 5.81,3.84 5.89,4.03 5.90,4.25 5.91,4.46 5.85,4.66 5.79,4.87 5.67,5.04 5.55,5.22 5.38,5.34 5.21,5.47 5.00,5.54 4.80,5.60 4.59,5.60 4.38,5.60 4.18,5.53 3.98,5.46 3.81,5.33 3.64,5.20 3.64,5.20 3.64,5.20 0.39,2.43 -2.85,-0.32 -2.95,-0.59 -3.05,-0.87 -3.07,-1.15 -3.10,-1.44 -3.06,-1.73 -3.02,-2.02 -2.91,-2.29 -2.81,-2.56 -2.64,-2.79 -2.47,-3.03 -2.25,-3.22 -2.02,-3.41 -1.77,-3.54 -1.51,-3.66 -1.22,-3.73 -0.94,-3.79 -0.65,-3.79 -0.36,-3.78 -0.08,-3.71 0.19,-3.63 0.45,-3.49 0.70,-3.35 0.91,-3.15 1.13,-2.96 1.29,-2.72 1.45,-2.47 1.44,-1.60 1.44,-0.72 1.50,-0.53 1.57,-0.35 1.59,-0.16 1.61,0.03 1.58,0.22 1.55,0.41 1.48,0.59 1.41,0.77 1.30,0.93 1.18,1.09 1.03,1.22 0.89,1.34 0.71,1.43 0.54,1.52 0.35,1.56 0.16,1.60 -0.03,1.60 -0.22,1.59 -0.41,1.54 -0.60,1.49 -0.77,1.40 -0.94,1.30 -1.08,1.17 -1.22,1.04 -1.33,0.88 -1.44,0.72 -1.44,0.72 L -1.44,0.72 Z"/></g><g transform="translate(399.9905280029344 78.24834240051354) rotate(0 -10.35912340007792 5.4842418000412465)" stroke="none"><path fill="#000000" d="M -1.53,0.51 Q -1.53,0.51 -2.06,-0.47 -2.60,-1.46 -3.60,-2.65 -4.60,-3.84 -5.59,-4.97 -6.58,-6.11 -7.44,-6.76 -8.30,-7.41 -10.97,-7.60 -13.64,-7.79 -16.25,-7.06 -18.85,-6.32 -22.58,-2.15 -26.30,2.00 -28.59,7.82 -30.87,13.63 -31.46,20.49 -32.04,27.35 -29.90,34.89 -27.75,42.44 -24.05,48.25 -20.34,54.05 -17.39,55.33 -14.44,56.60 -11.57,52.01 -8.70,47.42 -6.78,39.04 -4.85,30.66 -3.29,19.36 -1.72,8.05 -0.71,-4.09 0.30,-16.24 1.09,-25.63 1.88,-35.02 2.15,-39.70 2.42,-44.39 2.83,-47.09 3.25,-49.79 3.29,-50.04 3.34,-50.29 3.45,-50.52 3.56,-50.75 3.72,-50.95 3.88,-51.15 4.08,-51.31 4.28,-51.46 4.52,-51.57 4.75,-51.67 5.00,-51.71 5.26,-51.75 5.51,-51.74 5.77,-51.72 6.01,-51.64 6.25,-51.56 6.47,-51.43 6.69,-51.29 6.87,-51.11 7.05,-50.93 7.18,-50.71 7.31,-50.49 7.38,-50.24 7.45,-50.00 7.47,-49.74 7.48,-49.48 7.79,-47.86 8.11,-46.23 8.20,-35.37 8.30,-24.50 8.35,-10.45 8.41,3.59 9.04,16.16 9.67,28.72 11.45,35.30 13.24,41.88 14.21,43.99 15.18,46.10 15.25,46.30 15.32,46.50 15.33,46.71 15.33,46.93 15.27,47.13 15.21,47.33 15.08,47.50 14.96,47.68 14.78,47.80 14.61,47.92 14.41,47.99 14.20,48.05 13.99,48.04 13.78,48.03 13.58,47.96 13.38,47.89 13.22,47.75 13.05,47.62 12.94,47.44 12.82,47.26 12.77,47.06 12.72,46.85 12.74,46.64 12.76,46.43 12.84,46.23 12.93,46.04 13.07,45.88 13.21,45.72 13.40,45.62 13.58,45.51 13.79,45.47 14.00,45.43 14.21,45.46 14.42,45.49 14.61,45.59 14.80,45.68 14.95,45.83 15.10,45.98 15.19,46.17 15.29,46.36 15.32,46.57 15.34,46.79 15.30,46.99 15.26,47.20 15.16,47.39 15.05,47.57 14.89,47.71 14.73,47.85 14.54,47.94 14.34,48.02 14.13,48.04 13.92,48.05 13.71,48.00 13.51,47.95 13.33,47.84 13.15,47.72 13.02,47.55 12.89,47.39 12.89,47.39 12.89,47.39 11.41,45.15 9.93,42.90 7.61,35.95 5.29,28.99 4.50,16.30 3.72,3.60 3.74,-10.44 3.77,-24.49 3.79,-35.23 3.81,-45.98 3.53,-47.88 3.25,-49.79 3.29,-50.04 3.34,-50.29 3.45,-50.52 3.56,-50.75 3.72,-50.95 3.88,-51.15 4.08,-51.31 4.28,-51.46 4.52,-51.56 4.75,-51.67 5.00,-51.71 5.26,-51.75 5.51,-51.74 5.77,-51.72 6.01,-51.64 6.25,-51.56 6.47,-51.43 6.69,-51.29 6.87,-51.11 7.05,-50.93 7.18,-50.71 7.31,-50.49 7.38,-50.24 7.45,-50.00 7.47,-49.74 7.48,-49.49 6.91,-46.80 6.33,-44.11 5.94,-39.41 5.54,-34.71 4.76,-25.32 3.99,-15.93 2.97,-3.68 1.95,8.56 0.36,20.04 -1.21,31.52 -3.38,40.48 -5.56,49.44 -9.05,54.32 -12.54,59.20 -17.95,58.02 -23.37,56.84 -27.80,50.28 -32.24,43.73 -34.41,35.37 -36.58,27.01 -35.77,19.53 -34.96,12.05 -32.33,5.56 -29.69,-0.92 -25.13,-5.92 -20.57,-10.91 -16.87,-11.95 -13.18,-12.99 -9.26,-12.39 -5.34,-11.80 -3.90,-10.61 -2.45,-9.43 -1.32,-7.89 -0.19,-6.35 0.50,-4.54 1.20,-2.74 1.36,-1.62 1.53,-0.51 1.57,-0.31 1.60,-0.12 1.60,0.06 1.59,0.25 1.53,0.44 1.48,0.63 1.38,0.80 1.28,0.97 1.15,1.11 1.02,1.25 0.85,1.35 0.69,1.45 0.50,1.52 0.32,1.58 0.12,1.59 -0.06,1.61 -0.25,1.58 -0.44,1.55 -0.62,1.47 -0.80,1.39 -0.96,1.28 -1.11,1.16 -1.24,1.01 -1.36,0.86 -1.44,0.68 -1.53,0.51 -1.53,0.51 L -1.53,0.51 Z"/></g><g transform="translate(431.6772584031728 80.68578320053183) rotate(0 20.718246800155896 19.49952640014672)" stroke="none"><path fill="#000000" d="M -1.61,0 Q -1.61,0 -1.68,-1.75 -1.76,-3.50 -1.85,-3.54 -1.95,-3.59 -1.92,-3.82 -1.89,-4.05 -1.81,-4.27 -1.72,-4.49 -1.59,-4.69 -1.46,-4.88 -1.28,-5.04 -1.10,-5.19 -0.90,-5.30 -0.69,-5.41 -0.46,-5.47 -0.23,-5.53 0.00,-5.53 0.23,-5.53 0.46,-5.47 0.69,-5.41 0.90,-5.30 1.10,-5.19 1.28,-5.04 1.46,-4.88 1.59,-4.69 1.72,-4.49 1.81,-4.27 1.89,-4.05 1.92,-3.82 1.95,-3.59 2.31,-1.67 2.66,0.24 3.15,4.68 3.64,9.13 4.15,14.87 4.65,20.61 4.83,26.60 5.02,32.59 5.09,36.16 5.17,39.74 5.16,39.94 5.14,40.14 5.08,40.33 5.01,40.52 4.90,40.69 4.80,40.86 4.65,41.00 4.51,41.14 4.33,41.24 4.16,41.34 3.96,41.40 3.77,41.46 3.57,41.46 3.37,41.47 3.17,41.43 2.97,41.39 2.79,41.30 2.61,41.22 2.45,41.09 2.29,40.96 2.17,40.80 2.05,40.64 1.97,40.46 1.89,40.27 1.86,40.07 1.83,39.87 2.43,34.98 3.03,30.08 5.17,23.98 7.31,17.87 11.60,12.26 15.88,6.64 22.22,4.58 28.56,2.53 32.34,2.52 36.12,2.51 36.33,2.53 36.54,2.56 36.73,2.65 36.92,2.75 37.07,2.90 37.22,3.05 37.32,3.24 37.41,3.43 37.44,3.64 37.47,3.85 37.43,4.06 37.40,4.27 37.29,4.45 37.19,4.64 37.03,4.78 36.87,4.92 36.68,5.01 36.48,5.09 36.27,5.11 36.06,5.13 35.85,5.08 35.65,5.03 35.47,4.91 35.29,4.80 35.15,4.64 35.02,4.47 34.95,4.27 34.87,4.07 34.87,3.86 34.86,3.65 34.92,3.44 34.98,3.24 35.10,3.07 35.23,2.89 35.40,2.77 35.57,2.64 35.77,2.58 35.98,2.52 36.19,2.52 36.40,2.53 36.60,2.60 36.80,2.67 36.97,2.80 37.13,2.94 37.25,3.12 37.36,3.29 37.42,3.50 37.47,3.71 37.45,3.92 37.44,4.13 37.35,4.33 37.27,4.52 37.13,4.68 36.99,4.84 36.80,4.94 36.62,5.05 36.41,5.09 36.20,5.13 36.20,5.13 36.20,5.13 32.85,5.35 29.50,5.56 24.01,7.34 18.51,9.11 14.74,14.16 10.97,19.20 9.00,24.99 7.02,30.79 6.10,35.26 5.17,39.74 5.16,39.94 5.14,40.14 5.08,40.33 5.01,40.52 4.90,40.69 4.80,40.86 4.65,41.00 4.51,41.14 4.33,41.24 4.16,41.34 3.96,41.40 3.77,41.46 3.57,41.46 3.37,41.47 3.17,41.43 2.97,41.39 2.79,41.30 2.61,41.22 2.45,41.09 2.29,40.96 2.17,40.80 2.05,40.64 1.97,40.46 1.89,40.27 1.86,40.07 1.83,39.87 1.70,36.30 1.58,32.73 1.28,26.85 0.99,20.97 0.37,15.27 -0.24,9.57 -0.75,5.24 -1.26,0.90 -1.60,-1.34 -1.95,-3.59 -1.92,-3.82 -1.89,-4.05 -1.81,-4.27 -1.72,-4.49 -1.59,-4.69 -1.46,-4.88 -1.28,-5.04 -1.10,-5.19 -0.90,-5.30 -0.69,-5.41 -0.46,-5.47 -0.23,-5.53 -0.00,-5.53 0.23,-5.53 0.46,-5.47 0.69,-5.41 0.90,-5.30 1.10,-5.19 1.28,-5.04 1.46,-4.88 1.59,-4.69 1.72,-4.49 1.81,-4.27 1.89,-4.05 1.92,-3.82 1.95,-3.59 1.85,-3.54 1.76,-3.50 1.68,-1.75 1.61,0 1.59,0.19 1.56,0.38 1.49,0.56 1.42,0.75 1.31,0.91 1.20,1.07 1.06,1.19 0.91,1.32 0.74,1.41 0.57,1.50 0.38,1.55 0.19,1.60 -0.00,1.60 -0.19,1.60 -0.38,1.55 -0.57,1.50 -0.74,1.41 -0.91,1.32 -1.06,1.19 -1.20,1.07 -1.31,0.91 -1.42,0.74 -1.49,0.56 -1.56,0.38 -1.59,0.19 -1.61,-0.00 -1.61,-0.00 L -1.61,0 Z"/></g><g transform="translate(516.9876864038148 83.12322400055018) rotate(0 -4.874881600036758 13.4059244001009)" stroke="none"><path fill="#000000" d="M -1.41,0.78 Q -1.41,0.78 -3.66,-2.08 -5.92,-4.94 -7.58,-6.69 -9.24,-8.43 -12.62,-7.92 -15.99,-7.40 -19.22,-4.90 -22.45,-2.39 -26.03,1.67 -29.60,5.75 -31.36,11.12 -33.12,16.49 -32.87,21.69 -32.61,26.90 -30.78,30.12 -28.95,33.34 -25.83,33.59 -22.71,33.85 -19.25,31.03 -15.79,28.22 -12.60,23.03 -9.41,17.84 -6.92,12.20 -4.42,6.55 -3.39,2.16 -2.36,-2.23 -1.96,-4.54 -1.57,-6.85 -1.48,-7.10 -1.39,-7.34 -1.24,-7.56 -1.09,-7.78 -0.90,-7.95 -0.71,-8.13 -0.47,-8.25 -0.24,-8.38 0.00,-8.44 0.25,-8.51 0.52,-8.51 0.78,-8.51 1.03,-8.45 1.29,-8.39 1.52,-8.27 1.75,-8.16 1.95,-7.98 2.15,-7.81 2.30,-7.60 2.45,-7.38 2.55,-7.14 2.64,-6.90 2.68,-6.64 2.71,-6.38 2.68,-6.12 2.66,-5.86 3.95,-1.82 5.25,2.21 6.21,7.73 7.18,13.25 10.00,19.81 12.83,26.37 17.10,28.60 21.38,30.83 21.56,30.95 21.73,31.07 21.86,31.24 21.99,31.41 22.06,31.61 22.13,31.81 22.13,32.02 22.13,32.24 22.06,32.44 21.99,32.64 21.86,32.81 21.74,32.98 21.56,33.10 21.39,33.22 21.18,33.27 20.98,33.33 20.76,33.32 20.55,33.31 20.35,33.23 20.16,33.15 19.99,33.01 19.83,32.88 19.72,32.70 19.61,32.51 19.57,32.31 19.52,32.10 19.54,31.89 19.57,31.68 19.65,31.48 19.74,31.29 19.89,31.14 20.04,30.98 20.22,30.88 20.41,30.78 20.62,30.75 20.83,30.71 21.04,30.75 21.25,30.78 21.44,30.88 21.63,30.98 21.77,31.13 21.92,31.29 22.01,31.48 22.10,31.67 22.12,31.88 22.14,32.09 22.10,32.30 22.05,32.51 21.94,32.69 21.83,32.87 21.67,33.01 21.51,33.15 21.31,33.23 21.12,33.31 20.90,33.32 20.69,33.33 20.49,33.27 20.28,33.22 20.28,33.22 20.28,33.22 14.83,30.97 9.37,28.72 5.78,21.43 2.20,14.15 1.26,8.53 0.33,2.92 0.13,-0.57 -0.05,-4.07 -0.81,-5.46 -1.57,-6.85 -1.48,-7.09 -1.39,-7.34 -1.24,-7.56 -1.09,-7.78 -0.90,-7.95 -0.71,-8.13 -0.47,-8.25 -0.24,-8.38 0.00,-8.44 0.25,-8.51 0.52,-8.51 0.78,-8.51 1.03,-8.45 1.29,-8.39 1.52,-8.27 1.75,-8.16 1.95,-7.98 2.15,-7.81 2.30,-7.60 2.45,-7.38 2.55,-7.14 2.64,-6.90 2.68,-6.64 2.71,-6.38 2.68,-6.12 2.66,-5.86 2.14,-3.58 1.62,-1.29 0.51,3.45 -0.60,8.20 -3.15,14.19 -5.71,20.19 -9.46,25.89 -13.22,31.59 -17.84,34.61 -22.46,37.63 -26.83,36.78 -31.20,35.93 -33.78,31.60 -36.36,27.27 -36.61,21.31 -36.85,15.35 -34.84,9.29 -32.82,3.22 -29.17,-1.46 -25.52,-6.15 -21.64,-9.42 -17.75,-12.70 -13.51,-13.72 -9.28,-14.75 -7.11,-13.54 -4.94,-12.34 -3.01,-10.00 -1.08,-7.66 0.16,-4.22 1.41,-0.78 1.48,-0.60 1.55,-0.42 1.58,-0.23 1.61,-0.03 1.59,0.15 1.57,0.34 1.51,0.53 1.44,0.71 1.33,0.87 1.23,1.04 1.09,1.17 0.94,1.30 0.77,1.40 0.60,1.49 0.42,1.54 0.23,1.59 0.03,1.60 -0.15,1.60 -0.34,1.56 -0.53,1.52 -0.71,1.43 -0.88,1.34 -1.03,1.22 -1.18,1.09 -1.29,0.94 -1.41,0.78 -1.41,0.78 L -1.41,0.78 Z"/></g><g transform="translate(558.4241800041266 78.24834240051354) rotate(0 28.030569200210834 20.108886600151266)" stroke="none"><path fill="#000000" d="M -1.53,0.51 Q -1.53,0.51 -2.29,-1.56 -3.06,-3.64 -3.87,-5.18 -4.69,-6.71 -4.66,-7.30 -4.63,-7.89 -4.70,-8.16 -4.77,-8.42 -4.78,-8.69 -4.79,-8.96 -4.73,-9.23 -4.67,-9.49 -4.55,-9.74 -4.43,-9.98 -4.25,-10.19 -4.08,-10.39 -3.86,-10.55 -3.64,-10.71 -3.39,-10.82 -3.13,-10.92 -2.87,-10.96 -2.60,-11.00 -2.33,-10.97 -2.06,-10.94 -1.80,-10.85 -1.54,-10.76 -1.32,-10.61 -1.09,-10.47 -0.90,-10.27 -0.72,-10.07 -0.59,-9.83 -0.45,-9.59 2.72,-3.42 5.90,2.74 8.00,10.96 10.11,19.19 11.91,26.50 13.72,33.80 14.77,37.77 15.82,41.73 17.21,42.59 18.60,43.45 18.64,43.70 18.68,43.96 18.65,44.22 18.63,44.49 18.55,44.73 18.46,44.98 18.32,45.20 18.18,45.42 17.99,45.60 17.80,45.78 17.57,45.91 17.34,46.04 17.09,46.11 16.84,46.19 16.58,46.19 16.31,46.20 16.06,46.15 15.80,46.10 15.57,45.98 15.33,45.87 15.13,45.70 14.93,45.53 14.77,45.32 14.61,45.11 14.51,44.87 14.41,44.63 15.65,41.35 16.88,38.07 17.69,33.45 18.50,28.82 19.60,23.89 20.70,18.95 21.89,16.18 23.08,13.41 23.16,13.18 23.24,12.94 23.38,12.73 23.52,12.53 23.70,12.36 23.88,12.19 24.10,12.06 24.32,11.94 24.56,11.88 24.80,11.81 25.05,11.80 25.29,11.80 25.54,11.85 25.78,11.90 26.00,12.01 26.23,12.12 26.42,12.28 26.61,12.44 26.76,12.64 26.90,12.85 27.00,13.08 27.09,13.31 27.13,13.55 27.17,13.80 27.14,14.05 27.12,14.30 29.00,19.36 30.88,24.43 32.00,30.28 33.11,36.12 34.16,39.91 35.22,43.70 36.38,45.38 37.54,47.06 37.57,47.25 37.61,47.44 37.59,47.63 37.58,47.83 37.52,48.01 37.46,48.20 37.36,48.37 37.26,48.53 37.12,48.67 36.98,48.81 36.82,48.91 36.65,49.01 36.46,49.06 36.28,49.12 36.08,49.13 35.89,49.14 35.70,49.11 35.51,49.07 35.33,48.99 35.15,48.91 35.00,48.79 34.84,48.67 34.73,48.52 34.61,48.36 34.53,48.18 34.45,48.01 35.61,45.45 36.77,42.89 38.43,38.72 40.10,34.55 42.57,28.53 45.03,22.50 48.53,16.49 52.03,10.47 54.04,7.67 56.05,4.88 56.19,4.71 56.32,4.55 56.51,4.44 56.69,4.32 56.89,4.28 57.10,4.23 57.31,4.25 57.52,4.27 57.72,4.35 57.91,4.44 58.07,4.59 58.22,4.73 58.33,4.92 58.43,5.10 58.46,5.31 58.50,5.52 58.47,5.73 58.44,5.94 58.34,6.13 58.24,6.32 58.09,6.47 57.94,6.62 57.75,6.71 57.56,6.80 57.35,6.82 57.13,6.85 56.93,6.81 56.72,6.76 56.53,6.66 56.35,6.55 56.21,6.39 56.07,6.23 55.99,6.03 55.91,5.84 55.90,5.62 55.88,5.41 55.93,5.21 55.99,5.00 56.11,4.82 56.22,4.65 56.39,4.52 56.56,4.39 56.76,4.32 56.96,4.24 57.17,4.24 57.38,4.24 57.59,4.30 57.79,4.37 57.96,4.50 58.13,4.62 58.25,4.80 58.37,4.97 58.43,5.17 58.49,5.38 58.48,5.59 58.47,5.80 58.40,6.00 58.32,6.20 58.32,6.20 58.32,6.20 56.92,9.25 55.51,12.31 52.63,18.41 49.74,24.51 47.07,30.50 44.41,36.50 42.24,40.83 40.07,45.16 38.80,46.11 37.54,47.06 37.57,47.25 37.61,47.44 37.59,47.63 37.58,47.83 37.52,48.01 37.46,48.20 37.36,48.37 37.26,48.53 37.12,48.67 36.98,48.81 36.82,48.91 36.65,49.01 36.46,49.06 36.28,49.12 36.08,49.13 35.89,49.14 35.70,49.11 35.51,49.07 35.33,48.99 35.15,48.91 35.00,48.79 34.84,48.67 34.73,48.52 34.61,48.36 34.53,48.18 34.45,48.01 33.19,46.39 31.94,44.78 30.61,40.83 29.29,36.88 28.10,31.11 26.92,25.34 26.10,21.12 25.29,16.90 24.18,15.15 23.08,13.41 23.16,13.18 23.24,12.94 23.38,12.73 23.52,12.53 23.70,12.36 23.88,12.19 24.10,12.06 24.32,11.94 24.56,11.88 24.80,11.81 25.04,11.80 25.29,11.80 25.54,11.85 25.78,11.90 26.00,12.01 26.23,12.12 26.42,12.28 26.61,12.44 26.76,12.64 26.90,12.85 27.00,13.08 27.09,13.31 27.13,13.55 27.17,13.80 27.14,14.05 27.12,14.30 26.00,17.09 24.88,19.88 23.84,24.73 22.80,29.58 21.88,34.79 20.97,40.00 19.78,41.72 18.60,43.44 18.64,43.70 18.68,43.96 18.65,44.22 18.63,44.49 18.55,44.73 18.46,44.98 18.32,45.20 18.18,45.42 17.99,45.60 17.80,45.78 17.57,45.91 17.34,46.04 17.09,46.11 16.84,46.19 16.58,46.19 16.31,46.20 16.06,46.15 15.80,46.10 15.57,45.98 15.33,45.87 15.13,45.70 14.93,45.53 14.77,45.32 14.61,45.11 14.51,44.87 14.41,44.63 13.40,44.07 12.39,43.51 11.10,39.17 9.81,34.84 7.74,27.59 5.68,20.33 3.63,12.43 1.58,4.53 -0.39,-0.83 -2.38,-6.21 -3.50,-7.05 -4.63,-7.89 -4.70,-8.16 -4.77,-8.42 -4.78,-8.69 -4.79,-8.96 -4.73,-9.23 -4.67,-9.49 -4.55,-9.74 -4.43,-9.98 -4.25,-10.19 -4.08,-10.39 -3.86,-10.55 -3.64,-10.71 -3.39,-10.82 -3.13,-10.92 -2.87,-10.96 -2.60,-11.00 -2.33,-10.97 -2.06,-10.94 -1.80,-10.85 -1.54,-10.76 -1.32,-10.61 -1.09,-10.47 -0.90,-10.27 -0.72,-10.07 -0.59,-9.83 -0.45,-9.59 -0.58,-8.83 -0.70,-8.07 -0.22,-6.41 0.26,-4.75 0.89,-2.63 1.53,-0.51 1.57,-0.31 1.60,-0.12 1.60,0.06 1.59,0.25 1.53,0.44 1.48,0.63 1.38,0.80 1.28,0.97 1.15,1.11 1.02,1.25 0.85,1.35 0.69,1.45 0.50,1.52 0.32,1.58 0.12,1.59 -0.06,1.61 -0.25,1.58 -0.44,1.55 -0.62,1.47 -0.80,1.39 -0.96,1.28 -1.11,1.16 -1.24,1.01 -1.36,0.86 -1.44,0.68 -1.53,0.51 -1.53,0.51 L -1.53,0.51 Z"/></g><g transform="translate(247.06606638069445 224.05646642700452) rotate(0 -7.312322400054995 28.030569200210948)" stroke="none"><path fill="#000000" d="M -1.14,1.14 Q -1.14,1.14 -2.32,0.24 -3.50,-0.65 -4.81,-1.22 -6.11,-1.78 -7.71,-2.38 -9.30,-2.98 -11.15,-3.16 -13.00,-3.35 -14.10,-3.20 -15.21,-3.05 -17.43,-0.14 -19.66,2.76 -21.78,8.67 -23.90,14.57 -24.80,25.03 -25.70,35.49 -24.39,44.00 -23.07,52.52 -21.31,56.92 -19.54,61.32 -16.00,62.97 -12.46,64.62 -7.39,61.30 -2.32,57.98 1.50,51.30 5.32,44.62 7.39,36.34 9.47,28.06 9.38,19.42 9.29,10.77 7.61,4.38 5.94,-1.99 3.83,-5.90 1.72,-9.80 1.60,-9.97 1.48,-10.14 1.42,-10.35 1.35,-10.55 1.36,-10.76 1.37,-10.98 1.44,-11.18 1.52,-11.37 1.65,-11.54 1.79,-11.70 1.97,-11.82 2.15,-11.93 2.35,-11.98 2.56,-12.03 2.77,-12.01 2.98,-11.99 3.18,-11.91 3.37,-11.82 3.53,-11.68 3.69,-11.54 3.79,-11.35 3.89,-11.17 3.93,-10.96 3.97,-10.75 3.94,-10.54 3.91,-10.33 3.81,-10.14 3.72,-9.95 3.57,-9.80 3.42,-9.65 3.22,-9.56 3.03,-9.46 2.82,-9.44 2.61,-9.41 2.40,-9.45 2.20,-9.49 2.01,-9.60 1.83,-9.70 1.69,-9.86 1.55,-10.02 1.46,-10.22 1.38,-10.41 1.36,-10.62 1.35,-10.84 1.40,-11.04 1.45,-11.25 1.57,-11.43 1.68,-11.60 1.85,-11.74 2.02,-11.87 2.22,-11.94 2.42,-12.01 2.63,-12.02 2.84,-12.02 3.05,-11.96 3.25,-11.89 3.42,-11.77 3.59,-11.64 3.59,-11.64 3.59,-11.64 6.38,-7.27 9.17,-2.89 11.12,3.89 13.08,10.68 13.28,19.85 13.49,29.02 11.32,37.92 9.14,46.83 4.62,54.20 0.09,61.57 -6.23,64.94 -12.55,68.30 -17.70,65.89 -22.85,63.49 -25.03,58.33 -27.22,53.18 -28.60,44.16 -29.98,35.14 -28.98,24.15 -27.99,13.15 -25.64,6.48 -23.29,-0.18 -19.95,-3.77 -16.61,-7.36 -14.51,-7.66 -12.41,-7.96 -10.02,-7.56 -7.63,-7.16 -5.85,-6.38 -4.08,-5.60 -2.38,-4.57 -0.69,-3.54 0.22,-2.34 1.14,-1.14 1.26,-0.98 1.38,-0.83 1.46,-0.65 1.54,-0.48 1.57,-0.28 1.61,-0.09 1.59,0.09 1.58,0.29 1.52,0.47 1.47,0.66 1.37,0.82 1.27,0.99 1.13,1.13 0.99,1.27 0.82,1.37 0.66,1.47 0.47,1.52 0.29,1.58 0.09,1.59 -0.09,1.61 -0.28,1.57 -0.48,1.54 -0.65,1.46 -0.83,1.38 -0.98,1.26 -1.14,1.14 -1.14,1.14 L -1.14,1.14 Z"/></g><g transform="translate(279.3372084020266 222.0573496015956) rotate(0 21.936967200165043 28.639929400215493)" stroke="none"><path fill="#000000" d="M 0,-1.61 Q 0,-1.61 1.48,-1.34 2.97,-1.06 4.26,2.66 5.55,6.39 6.66,13.26 7.78,20.14 8.18,28.03 8.58,35.91 8.69,42.06 8.81,48.20 7.46,52.31 6.11,56.42 4.35,55.78 2.59,55.14 2.21,51.56 1.82,47.98 3.17,40.61 4.52,33.25 7.96,24.75 11.40,16.25 17.05,11.20 22.70,6.15 27.57,8.38 32.45,10.61 36.16,16.46 39.88,22.32 41.84,29.19 43.80,36.05 44.09,39.36 44.37,42.67 44.37,42.88 44.37,43.10 44.30,43.30 44.24,43.50 44.11,43.67 43.98,43.84 43.81,43.96 43.63,44.08 43.43,44.14 43.23,44.20 43.01,44.19 42.80,44.18 42.60,44.10 42.40,44.02 42.24,43.89 42.08,43.75 41.97,43.57 41.86,43.39 41.81,43.18 41.76,42.97 41.78,42.76 41.81,42.55 41.89,42.36 41.98,42.16 42.13,42.01 42.27,41.85 42.46,41.75 42.64,41.65 42.85,41.62 43.06,41.58 43.27,41.61 43.48,41.64 43.67,41.74 43.86,41.84 44.01,41.99 44.15,42.15 44.25,42.34 44.34,42.53 44.36,42.74 44.39,42.95 44.34,43.16 44.30,43.37 44.19,43.55 44.08,43.74 43.92,43.87 43.76,44.01 43.56,44.09 43.37,44.17 43.15,44.19 42.94,44.20 42.74,44.14 42.53,44.09 42.35,43.97 42.18,43.85 42.05,43.68 41.92,43.52 41.85,43.32 41.78,43.11 41.78,43.11 41.78,43.11 40.98,40.16 40.19,37.20 37.97,30.97 35.76,24.73 32.93,19.55 30.10,14.38 26.18,12.08 22.26,9.78 18.75,13.86 15.24,17.95 11.98,25.99 8.71,34.03 7.48,40.86 6.25,47.68 5.85,50.47 5.45,53.26 5.33,50.78 5.21,48.30 4.92,42.23 4.62,36.16 4.07,28.50 3.51,20.85 2.38,14.23 1.24,7.61 0.53,4.34 -0.17,1.06 -0.08,1.34 0,1.61 -0.19,1.59 -0.38,1.56 -0.56,1.49 -0.75,1.42 -0.91,1.31 -1.07,1.20 -1.19,1.06 -1.32,0.91 -1.41,0.74 -1.50,0.57 -1.55,0.38 -1.60,0.19 -1.60,-0.00 -1.60,-0.19 -1.55,-0.38 -1.50,-0.57 -1.41,-0.74 -1.32,-0.91 -1.19,-1.06 -1.07,-1.20 -0.91,-1.31 -0.74,-1.42 -0.56,-1.49 -0.38,-1.56 -0.19,-1.59 0.00,-1.61 0.00,-1.61 L 0,-1.61 Z"/></g><g transform="translate(51.43649360031179 392.67820560287936) rotate(0 -16.452725400123768 18.280806000137602)" stroke="none"><path fill="#000000" d="M -1.53,0.51 Q -1.53,0.51 -2.46,-1.51 -3.38,-3.54 -4.58,-5.64 -5.77,-7.74 -7.15,-9.49 -8.54,-11.23 -10.35,-12.95 -12.16,-14.67 -14.97,-15.53 -17.78,-16.39 -20.63,-15.90 -23.47,-15.40 -26.21,-13.06 -28.95,-10.73 -31.11,-6.10 -33.27,-1.48 -34.93,4.96 -36.58,11.40 -36.25,18.80 -35.91,26.21 -33.41,33.32 -30.90,40.43 -26.53,44.52 -22.16,48.60 -16.60,48.01 -11.05,47.41 -6.80,42.94 -2.55,38.46 -0.07,32.21 2.40,25.96 2.79,19.33 3.18,12.70 1.38,7.36 -0.42,2.01 -3.47,-1.03 -6.53,-4.08 -9.22,-3.68 -11.92,-3.28 -13.44,-2.56 -14.97,-1.84 -15.16,-1.75 -15.35,-1.66 -15.56,-1.64 -15.78,-1.62 -15.98,-1.67 -16.19,-1.72 -16.37,-1.83 -16.55,-1.94 -16.69,-2.10 -16.82,-2.26 -16.90,-2.46 -16.98,-2.66 -16.99,-2.87 -17.00,-3.09 -16.94,-3.29 -16.88,-3.49 -16.76,-3.67 -16.64,-3.84 -16.47,-3.97 -16.30,-4.10 -16.10,-4.16 -15.89,-4.23 -15.68,-4.23 -15.47,-4.23 -15.27,-4.16 -15.07,-4.09 -14.90,-3.96 -14.73,-3.83 -14.61,-3.65 -14.50,-3.47 -14.44,-3.27 -14.39,-3.06 -14.40,-2.85 -14.41,-2.64 -14.49,-2.44 -14.57,-2.24 -14.71,-2.08 -14.85,-1.92 -15.03,-1.82 -15.22,-1.71 -15.43,-1.66 -15.63,-1.62 -15.84,-1.64 -16.06,-1.67 -16.25,-1.76 -16.44,-1.85 -16.59,-2.00 -16.75,-2.15 -16.84,-2.34 -16.94,-2.52 -16.97,-2.73 -17.01,-2.94 -16.97,-3.15 -16.93,-3.36 -16.83,-3.55 -16.73,-3.74 -16.57,-3.88 -16.42,-4.03 -16.42,-4.03 -16.42,-4.03 -14.45,-5.63 -12.48,-7.23 -8.60,-7.36 -4.72,-7.48 -0.55,-3.52 3.61,0.44 5.62,6.65 7.63,12.87 7.10,20.24 6.57,27.61 3.58,34.53 0.59,41.44 -4.71,46.50 -10.03,51.56 -17.10,51.97 -24.17,52.39 -29.70,47.30 -35.23,42.21 -37.90,34.33 -40.57,26.45 -40.86,18.36 -41.16,10.28 -39.34,3.37 -37.53,-3.53 -34.83,-8.90 -32.13,-14.28 -28.38,-17.32 -24.63,-20.36 -20.46,-20.98 -16.28,-21.60 -12.47,-20.13 -8.65,-18.67 -6.40,-16.56 -4.15,-14.45 -2.58,-12.14 -1.02,-9.84 -0.21,-7.35 0.58,-4.86 1.05,-2.68 1.53,-0.51 1.57,-0.31 1.60,-0.12 1.60,0.06 1.59,0.25 1.53,0.44 1.48,0.63 1.38,0.80 1.28,0.97 1.15,1.11 1.02,1.25 0.85,1.35 0.69,1.45 0.50,1.52 0.32,1.58 0.12,1.59 -0.06,1.61 -0.25,1.58 -0.44,1.55 -0.62,1.47 -0.80,1.39 -0.96,1.28 -1.11,1.16 -1.24,1.01 -1.36,0.86 -1.44,0.68 -1.53,0.51 -1.53,0.51 L -1.53,0.51 Z"/></g><g transform="translate(81.90450360054103 374.3973996027418) rotate(0 16.452725400123825 7.921682600059626)" stroke="none"><path fill="#000000" d="M -1.61,0 Q -1.61,0 -1.39,-1.49 -1.18,-2.99 1.20,-4.04 3.58,-5.09 8.94,-4.39 14.31,-3.69 18.99,0.05 23.67,3.79 27.31,9.09 30.95,14.39 32.88,19.27 34.80,24.15 34.53,29.36 34.25,34.58 31.84,40.38 29.43,46.18 25.56,52.49 21.68,58.81 17.21,62.82 12.73,66.82 8.50,66.10 4.27,65.38 2.21,57.80 0.14,50.22 -0.58,37.84 -1.31,25.46 -0.87,10.72 -0.43,-4.01 0.79,-16.97 2.02,-29.92 3.70,-37.70 5.38,-45.49 7.92,-43.98 10.46,-42.48 10.49,-42.27 10.51,-42.06 10.47,-41.85 10.42,-41.64 10.32,-41.46 10.21,-41.27 10.05,-41.14 9.89,-41.00 9.69,-40.92 9.49,-40.84 9.28,-40.82 9.07,-40.81 8.86,-40.86 8.66,-40.92 8.48,-41.04 8.30,-41.16 8.17,-41.32 8.04,-41.49 7.97,-41.69 7.90,-41.89 7.90,-42.11 7.90,-42.32 7.97,-42.52 8.03,-42.72 8.16,-42.89 8.29,-43.06 8.46,-43.18 8.64,-43.30 8.84,-43.36 9.05,-43.42 9.26,-43.41 9.47,-43.40 9.67,-43.32 9.87,-43.25 10.03,-43.11 10.19,-42.97 10.30,-42.79 10.42,-42.61 10.46,-42.41 10.51,-42.20 10.49,-41.99 10.47,-41.78 10.38,-41.58 10.29,-41.39 10.15,-41.23 10.00,-41.08 9.82,-40.98 9.63,-40.88 9.42,-40.84 9.21,-40.80 9.00,-40.84 8.79,-40.87 8.60,-40.97 8.41,-41.06 8.27,-41.22 8.12,-41.37 8.03,-41.56 7.94,-41.75 7.94,-41.75 7.94,-41.75 8.00,-42.29 8.07,-42.82 7.31,-36.16 6.55,-29.49 5.34,-16.69 4.13,-3.89 3.77,10.64 3.42,25.18 4.11,37.17 4.80,49.16 6.09,56.05 7.38,62.94 9.39,63.29 11.40,63.64 15.01,60.27 18.63,56.91 22.24,50.82 25.86,44.74 27.88,39.50 29.91,34.26 30.17,29.98 30.44,25.70 28.68,21.44 26.93,17.18 23.57,12.51 20.20,7.83 16.64,4.62 13.08,1.40 8.95,0.55 4.82,-0.29 3.00,-0.05 1.18,0.18 1.39,0.09 1.61,0 1.59,0.19 1.56,0.38 1.49,0.56 1.42,0.75 1.31,0.91 1.20,1.07 1.06,1.19 0.91,1.32 0.74,1.41 0.57,1.50 0.38,1.55 0.19,1.60 -0.00,1.60 -0.19,1.60 -0.38,1.55 -0.57,1.50 -0.74,1.41 -0.91,1.32 -1.06,1.19 -1.20,1.07 -1.31,0.91 -1.42,0.74 -1.49,0.56 -1.56,0.38 -1.59,0.19 -1.61,-0.00 -1.61,-0.00 L -1.61,0 Z"/></g><g transform="translate(159.90260920112792 376.8348404027602) rotate(0 -1.8280806000137773 32.905450800247536)" stroke="none"><path fill="#000000" d="M -1.14,1.14 Q -1.14,1.14 -2.43,0.33 -3.73,-0.46 -5.30,-0.12 -6.87,0.22 -9.06,2.63 -11.25,5.05 -13.72,8.46 -16.19,11.88 -17.98,15.00 -19.77,18.13 -20.56,19.66 -21.34,21.20 -20.51,22.11 -19.68,23.03 -17.23,23.37 -14.78,23.71 -10.56,23.93 -6.34,24.16 -1.71,24.29 2.90,24.41 6.10,24.84 9.30,25.27 13.21,27.80 17.12,30.33 18.59,33.93 20.06,37.53 19.52,40.87 18.98,44.21 14.67,49.06 10.36,53.91 5.03,58.35 -0.29,62.79 -5.54,65.78 -10.78,68.77 -15.44,68.21 -20.09,67.66 -20.26,67.53 -20.42,67.40 -20.54,67.22 -20.65,67.04 -20.70,66.83 -20.76,66.63 -20.74,66.42 -20.72,66.20 -20.64,66.01 -20.56,65.81 -20.41,65.65 -20.27,65.49 -20.09,65.39 -19.90,65.28 -19.70,65.24 -19.49,65.20 -19.28,65.23 -19.07,65.26 -18.88,65.35 -18.68,65.45 -18.53,65.60 -18.38,65.75 -18.29,65.94 -18.19,66.13 -18.16,66.34 -18.13,66.55 -18.17,66.76 -18.21,66.96 -18.32,67.15 -18.42,67.33 -18.58,67.48 -18.74,67.62 -18.93,67.70 -19.13,67.79 -19.34,67.81 -19.55,67.82 -19.76,67.77 -19.96,67.72 -20.14,67.61 -20.32,67.50 -20.45,67.33 -20.59,67.17 -20.66,66.97 -20.74,66.77 -20.74,66.56 -20.75,66.34 -20.69,66.14 -20.63,65.94 -20.50,65.76 -20.38,65.59 -20.21,65.47 -20.03,65.34 -19.83,65.28 -19.63,65.21 -19.42,65.22 -19.20,65.22 -19.00,65.30 -18.80,65.37 -18.80,65.37 -18.80,65.37 -16.07,64.74 -13.33,64.11 -8.50,61.36 -3.68,58.61 1.47,54.48 6.64,50.36 10.53,46.60 14.43,42.84 15.07,40.77 15.71,38.69 14.99,36.16 14.28,33.62 11.40,31.61 8.52,29.59 5.65,29.22 2.78,28.84 -1.92,28.72 -6.63,28.60 -11.19,28.25 -15.75,27.91 -19.13,26.89 -22.51,25.87 -23.84,23.60 -25.17,21.33 -24.45,18.67 -23.72,16.01 -21.97,12.54 -20.21,9.08 -17.63,5.25 -15.05,1.42 -11.96,-1.67 -8.87,-4.76 -6.11,-5.30 -3.35,-5.84 -1.91,-4.79 -0.46,-3.73 0.33,-2.43 1.14,-1.14 1.26,-0.98 1.38,-0.83 1.46,-0.65 1.54,-0.48 1.57,-0.28 1.61,-0.09 1.59,0.09 1.58,0.29 1.52,0.47 1.47,0.66 1.37,0.82 1.27,0.99 1.13,1.13 0.99,1.27 0.82,1.37 0.66,1.47 0.47,1.52 0.29,1.58 0.09,1.59 -0.09,1.61 -0.28,1.57 -0.48,1.54 -0.65,1.46 -0.83,1.38 -0.98,1.26 -1.14,1.14 -1.14,1.14 L -1.14,1.14 Z"/></g><g transform="translate(197.68294160141215 373.17867920273267) rotate(0 3.046801000022924 37.17097220027972)" stroke="none"><path fill="#000000" d="M 1.59,-0.22 Q 1.59,-0.22 2.18,2.19 2.77,4.60 3.42,10.60 4.07,16.60 4.64,25.81 5.21,35.02 5.92,45.92 6.63,56.82 6.72,62.19 6.81,67.57 6.79,67.78 6.77,67.99 6.69,68.18 6.60,68.38 6.46,68.54 6.31,68.69 6.13,68.80 5.94,68.90 5.73,68.94 5.53,68.98 5.31,68.95 5.10,68.92 4.91,68.82 4.72,68.73 4.58,68.57 4.43,68.42 4.33,68.23 4.24,68.04 4.21,67.83 4.19,67.62 4.23,67.41 4.27,67.20 4.37,67.02 4.48,66.83 4.64,66.69 4.80,66.55 4.99,66.47 5.19,66.39 5.40,66.37 5.61,66.36 5.82,66.41 6.03,66.46 6.20,66.58 6.38,66.69 6.51,66.86 6.65,67.03 6.72,67.23 6.79,67.43 6.79,67.64 6.80,67.85 6.73,68.05 6.67,68.26 6.55,68.43 6.42,68.60 6.25,68.72 6.07,68.85 5.87,68.91 5.67,68.97 5.45,68.96 5.24,68.95 5.04,68.88 4.84,68.80 4.68,68.67 4.51,68.53 4.40,68.36 4.29,68.18 4.24,67.97 4.19,67.76 4.19,67.76 4.19,67.76 3.48,62.46 2.77,57.15 1.60,46.23 0.43,35.31 -0.12,26.15 -0.68,17.00 -1.02,11.10 -1.37,5.20 -1.48,2.71 -1.59,0.22 -1.60,0.03 -1.60,-0.16 -1.56,-0.35 -1.52,-0.54 -1.43,-0.71 -1.34,-0.88 -1.22,-1.03 -1.09,-1.18 -0.93,-1.29 -0.77,-1.41 -0.59,-1.48 -0.41,-1.55 -0.22,-1.58 -0.03,-1.61 0.15,-1.59 0.35,-1.57 0.53,-1.50 0.71,-1.44 0.88,-1.33 1.04,-1.23 1.17,-1.08 1.30,-0.94 1.40,-0.77 1.49,-0.60 1.54,-0.41 1.59,-0.22 1.59,-0.22 L 1.59,-0.22 Z"/></g><g transform="translate(199.6982022256493 332.4329537360422) rotate(0 1.8280806000137773 1.21872040000909)" stroke="none"><path fill="#000000" d="M 1.29,-0.96 Q 1.29,-0.96 0.56,0.50 -0.15,1.97 -0.25,1.79 -0.35,1.60 -0.38,1.39 -0.41,1.18 -0.38,0.97 -0.34,0.76 -0.24,0.57 -0.14,0.38 0.00,0.24 0.16,0.09 0.35,0.01 0.55,-0.07 0.76,-0.09 0.97,-0.11 1.18,-0.07 1.38,-0.02 1.56,0.08 1.75,0.19 1.88,0.35 2.02,0.52 2.10,0.71 2.17,0.91 2.18,1.12 2.19,1.34 2.13,1.54 2.08,1.75 1.96,1.92 1.84,2.10 1.67,2.22 1.50,2.35 1.29,2.42 1.09,2.48 0.88,2.48 0.67,2.48 0.47,2.41 0.27,2.34 0.10,2.21 -0.06,2.08 -0.18,1.91 -0.30,1.73 -0.35,1.52 -0.41,1.32 -0.40,1.11 -0.38,0.90 -0.30,0.70 -0.22,0.50 -0.08,0.34 0.05,0.18 0.23,0.07 0.41,-0.03 0.62,-0.07 0.83,-0.12 1.04,-0.09 1.25,-0.07 1.44,0.01 1.63,0.10 1.79,0.25 1.94,0.40 1.94,0.40 1.94,0.40 0.32,0.68 -1.29,0.96 -1.38,0.79 -1.48,0.63 -1.53,0.44 -1.59,0.25 -1.60,0.06 -1.60,-0.13 -1.56,-0.32 -1.53,-0.51 -1.44,-0.68 -1.36,-0.86 -1.24,-1.01 -1.11,-1.16 -0.96,-1.28 -0.80,-1.39 -0.62,-1.47 -0.44,-1.55 -0.25,-1.58 -0.06,-1.61 0.13,-1.59 0.32,-1.58 0.50,-1.51 0.69,-1.45 0.85,-1.35 1.02,-1.24 1.15,-1.10 1.29,-0.96 1.29,-0.96 L 1.29,-0.96 Z"/></g><g transform="translate(268.36872480194404 386.5846036028335) rotate(0 -10.35912340007792 5.684341886080802e-14)" stroke="none"><path fill="#000000" d="M -1.34,0.89 Q -1.34,0.89 -2.18,-0.05 -3.03,-1.01 -4.14,-1.90 -5.24,-2.78 -6.77,-4.19 -8.30,-5.59 -9.93,-7.20 -11.55,-8.82 -13.29,-9.28 -15.03,-9.74 -17.07,-8.79 -19.11,-7.85 -21.67,-4.34 -24.22,-0.82 -26.47,4.43 -28.71,9.69 -30.02,16.05 -31.32,22.40 -31.89,27.18 -32.46,31.97 -31.03,38.95 -29.61,45.94 -26.77,49.55 -23.93,53.17 -20.04,52.33 -16.14,51.49 -12.34,45.50 -8.55,39.50 -4.71,29.74 -0.88,19.97 1.56,8.94 4.01,-2.09 5.41,-12.39 6.81,-22.69 7.48,-31.24 8.16,-39.78 7.78,-45.77 7.40,-51.75 6.93,-54.97 6.47,-58.19 5.62,-59.21 4.76,-60.23 4.75,-60.50 4.74,-60.77 4.79,-61.03 4.85,-61.29 4.96,-61.53 5.08,-61.77 5.24,-61.98 5.41,-62.19 5.62,-62.35 5.84,-62.51 6.08,-62.61 6.33,-62.72 6.59,-62.76 6.85,-62.80 7.12,-62.78 7.39,-62.76 7.64,-62.68 7.89,-62.60 8.12,-62.45 8.34,-62.31 8.53,-62.12 8.71,-61.93 8.85,-61.70 8.98,-61.47 9.06,-61.21 9.13,-60.95 9.24,-57.75 9.34,-54.56 9.36,-46.22 9.37,-37.88 9.81,-23.51 10.25,-9.14 10.77,6.77 11.30,22.69 12.42,33.58 13.55,44.48 14.08,49.85 14.60,55.22 14.60,55.44 14.60,55.65 14.53,55.85 14.47,56.05 14.34,56.22 14.21,56.39 14.03,56.51 13.86,56.63 13.65,56.69 13.45,56.74 13.24,56.73 13.03,56.72 12.83,56.64 12.63,56.56 12.47,56.43 12.31,56.29 12.20,56.11 12.09,55.93 12.04,55.72 11.99,55.51 12.02,55.30 12.04,55.09 12.13,54.90 12.22,54.70 12.36,54.55 12.51,54.39 12.70,54.29 12.88,54.19 13.09,54.16 13.30,54.12 13.51,54.16 13.72,54.19 13.91,54.29 14.10,54.39 14.25,54.55 14.39,54.70 14.48,54.89 14.57,55.08 14.59,55.30 14.62,55.51 14.57,55.71 14.53,55.92 14.42,56.10 14.31,56.29 14.15,56.42 13.98,56.56 13.79,56.64 13.59,56.72 13.38,56.73 13.17,56.74 12.96,56.69 12.76,56.63 12.58,56.51 12.40,56.39 12.28,56.22 12.15,56.05 12.08,55.85 12.01,55.65 12.01,55.65 12.01,55.65 10.76,50.30 9.51,44.94 8.10,33.89 6.69,22.84 6.20,6.90 5.71,-9.02 5.41,-23.44 5.12,-37.86 5.04,-46.13 4.96,-54.41 4.86,-57.32 4.76,-60.23 4.75,-60.50 4.74,-60.77 4.79,-61.03 4.85,-61.29 4.96,-61.53 5.08,-61.77 5.24,-61.98 5.41,-62.19 5.62,-62.35 5.84,-62.51 6.08,-62.61 6.33,-62.72 6.59,-62.76 6.85,-62.80 7.12,-62.78 7.39,-62.76 7.64,-62.68 7.89,-62.60 8.12,-62.45 8.34,-62.31 8.53,-62.12 8.71,-61.93 8.85,-61.70 8.98,-61.47 9.06,-61.21 9.13,-60.95 9.44,-59.87 9.75,-58.79 10.37,-55.41 10.99,-52.02 11.52,-45.77 12.05,-39.53 11.56,-30.83 11.07,-22.13 9.74,-11.65 8.40,-1.16 6.07,10.32 3.75,21.81 -0.37,32.07 -4.50,42.33 -9.53,48.82 -14.57,55.32 -19.90,55.85 -25.24,56.37 -29.30,51.65 -33.35,46.93 -34.95,39.25 -36.55,31.56 -35.99,26.57 -35.43,21.57 -34.08,14.81 -32.72,8.04 -30.36,2.22 -28.01,-3.59 -24.68,-8.01 -21.35,-12.43 -17.79,-13.68 -14.23,-14.92 -11.04,-13.93 -7.85,-12.94 -6.12,-11.15 -4.38,-9.35 -2.96,-7.68 -1.54,-6.00 -0.65,-4.59 0.22,-3.19 0.78,-2.04 1.34,-0.89 1.43,-0.72 1.51,-0.54 1.56,-0.35 1.60,-0.16 1.60,0.02 1.59,0.22 1.54,0.40 1.49,0.59 1.40,0.76 1.31,0.93 1.18,1.08 1.05,1.22 0.88,1.33 0.72,1.44 0.54,1.50 0.36,1.57 0.16,1.59 -0.02,1.61 -0.21,1.58 -0.41,1.56 -0.59,1.48 -0.77,1.41 -0.93,1.30 -1.08,1.19 -1.21,1.04 -1.34,0.89 -1.34,0.89 L -1.34,0.89 Z"/></g><g transform="translate(308.5864980022467 385.36588320282436) rotate(0 2.4374408000183507 28.639929400215465)" stroke="none"><path fill="#000000" d="M 1.59,-0.24 Q 1.59,-0.24 2.58,4.26 3.57,8.77 4.33,16.38 5.10,23.98 5.21,33.22 5.31,42.45 5.40,46.65 5.48,50.86 5.47,51.07 5.46,51.28 5.38,51.48 5.31,51.68 5.17,51.84 5.03,52.00 4.85,52.11 4.67,52.22 4.46,52.27 4.25,52.31 4.04,52.29 3.83,52.27 3.64,52.18 3.44,52.09 3.29,51.94 3.13,51.80 3.03,51.61 2.93,51.42 2.90,51.21 2.87,51.00 2.90,50.79 2.93,50.58 3.03,50.40 3.13,50.21 3.29,50.06 3.44,49.91 3.63,49.83 3.83,49.74 4.04,49.71 4.25,49.69 4.46,49.73 4.66,49.78 4.85,49.89 5.03,50.00 5.17,50.16 5.30,50.32 5.38,50.52 5.46,50.72 5.47,50.93 5.48,51.14 5.43,51.35 5.37,51.55 5.25,51.73 5.13,51.90 4.96,52.03 4.80,52.16 4.59,52.23 4.39,52.30 4.18,52.30 3.97,52.30 3.77,52.23 3.56,52.16 3.40,52.03 3.23,51.91 3.11,51.73 2.99,51.55 2.93,51.35 2.87,51.14 2.87,51.14 2.87,51.14 2.02,46.86 1.17,42.58 0.73,33.49 0.29,24.40 -0.24,16.92 -0.77,9.44 -1.18,4.84 -1.59,0.24 -1.60,0.05 -1.60,-0.14 -1.56,-0.33 -1.52,-0.52 -1.44,-0.69 -1.35,-0.87 -1.23,-1.02 -1.10,-1.17 -0.95,-1.28 -0.79,-1.40 -0.61,-1.47 -0.43,-1.55 -0.24,-1.58 -0.05,-1.61 0.14,-1.59 0.33,-1.57 0.52,-1.51 0.70,-1.45 0.86,-1.34 1.03,-1.24 1.16,-1.10 1.29,-0.95 1.39,-0.78 1.49,-0.61 1.54,-0.43 1.59,-0.24 1.59,-0.24 L 1.59,-0.24 Z"/></g><g transform="translate(370.7412384027143 398.7718076029252) rotate(0 -3.6561612000274977 18.890166200142176)" stroke="none"><path fill="#000000" d="M -1.59,0.22 Q -1.59,0.22 -2.13,-2.19 -2.66,-4.62 -3.24,-6.19 -3.82,-7.76 -5.45,-10.25 -7.08,-12.75 -8.72,-13.85 -10.35,-14.95 -11.86,-14.72 -13.38,-14.49 -15.89,-12.69 -18.41,-10.89 -21.31,-7.20 -24.21,-3.50 -26.47,2.81 -28.72,9.14 -29.33,17.31 -29.93,25.48 -29.86,31.70 -29.78,37.93 -28.00,41.95 -26.21,45.97 -19.83,43.63 -13.45,41.30 -8.62,34.41 -3.79,27.52 -0.96,19.84 1.86,12.16 3.09,5.82 4.33,-0.52 4.48,-4.18 4.62,-7.83 4.36,-9.12 4.11,-10.41 4.15,-10.69 4.20,-10.98 4.32,-11.24 4.43,-11.50 4.61,-11.73 4.78,-11.96 5.01,-12.14 5.23,-12.32 5.49,-12.44 5.75,-12.56 6.03,-12.62 6.32,-12.67 6.60,-12.66 6.89,-12.65 7.17,-12.56 7.44,-12.48 7.69,-12.33 7.94,-12.19 8.15,-11.99 8.35,-11.79 8.50,-11.54 8.65,-11.30 8.74,-11.02 8.83,-10.75 8.85,-10.46 8.87,-10.18 9.20,-8.11 9.52,-6.05 11.43,0.27 13.33,6.60 15.90,16.78 18.46,26.97 20.62,35.16 22.78,43.35 24.09,47.21 25.41,51.08 25.46,51.28 25.52,51.49 25.51,51.70 25.49,51.91 25.42,52.11 25.34,52.31 25.20,52.47 25.06,52.63 24.88,52.74 24.70,52.85 24.49,52.89 24.28,52.94 24.07,52.91 23.86,52.89 23.66,52.80 23.47,52.71 23.32,52.56 23.16,52.42 23.07,52.23 22.97,52.04 22.93,51.83 22.90,51.62 22.93,51.41 22.97,51.20 23.07,51.02 23.17,50.83 23.32,50.68 23.48,50.54 23.67,50.45 23.86,50.36 24.08,50.34 24.29,50.31 24.49,50.36 24.70,50.41 24.88,50.52 25.07,50.63 25.20,50.79 25.34,50.95 25.42,51.15 25.50,51.35 25.51,51.56 25.52,51.77 25.46,51.98 25.40,52.18 25.28,52.36 25.16,52.53 24.99,52.66 24.82,52.79 24.62,52.86 24.42,52.92 24.21,52.92 24.00,52.92 23.79,52.85 23.59,52.78 23.42,52.65 23.26,52.53 23.14,52.35 23.02,52.17 23.02,52.17 23.02,52.17 20.82,48.39 18.63,44.62 15.83,36.47 13.02,28.33 10.51,18.22 7.99,8.10 6.20,1.30 4.40,-5.50 4.25,-7.95 4.11,-10.41 4.15,-10.69 4.20,-10.98 4.32,-11.24 4.43,-11.50 4.61,-11.73 4.78,-11.96 5.01,-12.14 5.23,-12.32 5.49,-12.44 5.75,-12.56 6.03,-12.62 6.32,-12.67 6.60,-12.66 6.89,-12.65 7.17,-12.56 7.44,-12.48 7.69,-12.33 7.94,-12.19 8.15,-11.99 8.35,-11.79 8.50,-11.54 8.65,-11.30 8.74,-11.02 8.83,-10.75 8.85,-10.46 8.87,-10.18 9.16,-8.91 9.44,-7.64 9.21,-3.63 8.99,0.36 7.69,7.10 6.40,13.84 3.28,22.12 0.17,30.39 -5.69,37.95 -11.55,45.51 -18.80,47.49 -26.04,49.47 -29.92,43.86 -33.80,38.25 -33.87,31.71 -33.95,25.17 -33.26,16.49 -32.56,7.82 -30.12,0.88 -27.67,-6.04 -24.46,-10.45 -21.24,-14.86 -17.60,-17.30 -13.97,-19.74 -10.91,-19.59 -7.85,-19.44 -5.30,-17.42 -2.76,-15.40 -1.17,-12.20 0.42,-9.01 0.84,-7.10 1.26,-5.18 1.43,-2.70 1.59,-0.22 1.60,-0.03 1.60,0.16 1.56,0.35 1.52,0.54 1.43,0.71 1.34,0.88 1.22,1.03 1.09,1.18 0.93,1.29 0.77,1.41 0.59,1.48 0.41,1.55 0.22,1.58 0.03,1.61 -0.15,1.59 -0.35,1.57 -0.53,1.50 -0.71,1.44 -0.88,1.33 -1.04,1.23 -1.17,1.08 -1.30,0.94 -1.40,0.77 -1.49,0.60 -1.54,0.41 -1.59,0.22 -1.59,0.22 L -1.59,0.22 Z"/></g><g transform="translate(408.52157080299867 391.4594852028702) rotate(0 18.28080600013749 25.59312840019254)" stroke="none"><path fill="#000000" d="M -1.44,0.72 Q -1.44,0.72 -2.36,-0.72 -3.28,-2.17 -3.31,-2.22 -3.35,-2.26 -3.44,-2.52 -3.53,-2.78 -3.56,-3.06 -3.59,-3.33 -3.55,-3.61 -3.51,-3.88 -3.41,-4.14 -3.30,-4.40 -3.14,-4.62 -2.98,-4.85 -2.77,-5.03 -2.56,-5.20 -2.31,-5.33 -2.06,-5.45 -1.79,-5.51 -1.52,-5.57 -1.25,-5.57 -0.97,-5.56 -0.70,-5.49 -0.43,-5.42 -0.19,-5.29 0.04,-5.15 0.24,-4.97 0.45,-4.78 0.60,-4.55 0.75,-4.32 3.35,1.04 5.94,6.41 7.07,13.30 8.21,20.18 8.73,27.34 9.24,34.50 9.15,40.35 9.07,46.20 8.69,49.02 8.31,51.83 8.29,52.05 8.28,52.27 8.20,52.48 8.13,52.69 8.01,52.88 7.89,53.06 7.73,53.22 7.57,53.37 7.38,53.48 7.19,53.58 6.98,53.64 6.77,53.70 6.55,53.71 6.32,53.72 6.11,53.67 5.89,53.63 5.69,53.53 5.50,53.44 5.33,53.30 5.16,53.15 5.02,52.98 4.89,52.80 4.81,52.60 4.72,52.39 4.69,52.18 4.65,51.96 5.09,46.28 5.53,40.61 8.20,32.14 10.86,23.67 14.87,15.41 18.89,7.15 23.47,3.52 28.05,-0.11 31.51,1.02 34.97,2.15 37.19,11.75 39.41,21.35 40.11,27.78 40.82,34.20 40.33,38.05 39.85,41.89 39.84,42.11 39.82,42.32 39.74,42.51 39.65,42.71 39.51,42.87 39.37,43.02 39.18,43.13 39.00,43.23 38.79,43.27 38.58,43.31 38.37,43.29 38.16,43.26 37.97,43.16 37.78,43.07 37.63,42.92 37.48,42.77 37.38,42.58 37.29,42.39 37.26,42.18 37.23,41.97 37.27,41.76 37.31,41.55 37.42,41.36 37.52,41.18 37.68,41.04 37.84,40.89 38.03,40.81 38.23,40.73 38.44,40.71 38.65,40.69 38.86,40.74 39.06,40.79 39.24,40.91 39.42,41.02 39.56,41.19 39.69,41.36 39.76,41.55 39.83,41.75 39.84,41.97 39.85,42.18 39.78,42.38 39.72,42.59 39.60,42.76 39.47,42.93 39.30,43.05 39.13,43.18 38.92,43.24 38.72,43.30 38.51,43.30 38.30,43.29 38.10,43.22 37.90,43.14 37.73,43.01 37.57,42.88 37.45,42.70 37.34,42.52 37.29,42.31 37.24,42.11 37.24,42.11 37.24,42.11 36.15,38.48 35.06,34.85 34.33,28.64 33.60,22.43 32.46,13.83 31.32,5.24 30.15,4.78 28.99,4.33 26.00,6.85 23.00,9.37 19.10,17.24 15.19,25.11 12.39,33.15 9.59,41.20 8.95,46.52 8.31,51.83 8.29,52.05 8.28,52.27 8.20,52.48 8.13,52.69 8.01,52.88 7.89,53.06 7.73,53.21 7.57,53.37 7.38,53.48 7.19,53.58 6.98,53.64 6.77,53.70 6.55,53.71 6.32,53.72 6.11,53.67 5.89,53.63 5.69,53.53 5.50,53.44 5.33,53.30 5.16,53.16 5.02,52.98 4.89,52.80 4.81,52.60 4.72,52.39 4.69,52.18 4.65,51.96 4.81,49.15 4.97,46.33 4.50,40.59 4.02,34.84 3.62,27.91 3.23,20.98 2.20,14.50 1.18,8.02 -0.00,3.45 -1.20,-1.11 -2.27,-1.69 -3.35,-2.26 -3.44,-2.52 -3.53,-2.78 -3.56,-3.06 -3.59,-3.33 -3.55,-3.61 -3.51,-3.88 -3.41,-4.14 -3.30,-4.40 -3.14,-4.62 -2.98,-4.85 -2.77,-5.02 -2.56,-5.20 -2.31,-5.33 -2.06,-5.45 -1.79,-5.51 -1.52,-5.57 -1.25,-5.57 -0.97,-5.56 -0.70,-5.49 -0.43,-5.42 -0.19,-5.29 0.04,-5.15 0.24,-4.97 0.45,-4.78 0.60,-4.55 0.75,-4.32 0.62,-3.87 0.48,-3.43 0.96,-2.07 1.44,-0.72 1.50,-0.53 1.57,-0.35 1.59,-0.16 1.61,0.03 1.58,0.22 1.55,0.41 1.48,0.59 1.41,0.77 1.30,0.93 1.18,1.09 1.03,1.22 0.89,1.34 0.71,1.43 0.54,1.52 0.35,1.56 0.16,1.60 -0.03,1.60 -0.22,1.59 -0.41,1.54 -0.60,1.49 -0.77,1.40 -0.94,1.30 -1.08,1.17 -1.22,1.04 -1.33,0.88 -1.44,0.72 -1.44,0.72 L -1.44,0.72 Z"/></g><g transform="translate(493.83199880364054 348.8042712025493) rotate(0 8.531042800064142 48.13945580036216)" stroke="none"><path fill="#000000" d="M 1.56,-0.39 Q 1.56,-0.39 2.59,2.33 3.62,5.05 3.92,8.88 4.22,12.71 3.98,23.83 3.74,34.95 3.25,47.01 2.76,59.06 2.52,69.06 2.27,79.06 2.22,84.72 2.17,90.37 2.32,90.68 2.47,90.98 2.43,91.27 2.39,91.56 2.28,91.84 2.18,92.11 2.01,92.35 1.84,92.58 1.62,92.77 1.39,92.97 1.13,93.10 0.87,93.23 0.59,93.30 0.30,93.36 0.01,93.36 -0.27,93.35 -0.55,93.28 -0.84,93.21 -1.09,93.07 -1.35,92.93 -1.57,92.73 -1.78,92.53 -1.94,92.29 -2.11,92.05 -2.21,91.77 -2.31,91.50 -2.34,91.21 -2.37,90.92 -2.11,87.43 -1.85,83.94 -1.34,80.36 -0.84,76.77 0.83,67.18 2.51,57.60 5.05,48.19 7.59,38.79 9.77,32.33 11.94,25.88 13.46,21.98 14.97,18.07 15.55,15.78 16.14,13.49 15.05,12.03 13.97,10.56 12.00,8.97 10.03,7.37 7.46,5.56 4.90,3.75 2.50,1.19 0.10,-1.36 0.28,-1.25 0.47,-1.15 0.61,-0.99 0.75,-0.83 0.83,-0.63 0.92,-0.44 0.93,-0.23 0.95,-0.02 0.90,0.18 0.84,0.39 0.73,0.56 0.61,0.74 0.45,0.88 0.28,1.01 0.08,1.08 -0.11,1.15 -0.32,1.16 -0.53,1.16 -0.74,1.10 -0.94,1.04 -1.11,0.91 -1.28,0.79 -1.41,0.62 -1.53,0.44 -1.59,0.24 -1.65,0.04 -1.65,-0.17 -1.64,-0.38 -1.57,-0.58 -1.49,-0.78 -1.36,-0.94 -1.22,-1.11 -1.04,-1.22 -0.87,-1.34 -0.66,-1.39 -0.45,-1.44 -0.24,-1.42 -0.03,-1.40 0.16,-1.32 0.35,-1.23 0.51,-1.09 0.67,-0.95 0.77,-0.76 0.87,-0.58 0.91,-0.37 0.95,-0.16 0.92,0.04 0.89,0.25 0.80,0.44 0.70,0.63 0.55,0.78 0.40,0.93 0.21,1.03 0.02,1.12 -0.18,1.15 -0.39,1.18 -0.60,1.13 -0.81,1.09 -0.81,1.09 -0.81,1.09 3.56,0.24 7.94,-0.60 10.77,1.37 13.61,3.34 16.09,5.70 18.57,8.06 19.71,10.95 20.86,13.85 20.09,16.87 19.32,19.89 17.66,23.55 16.01,27.20 14.01,33.57 12.00,39.94 9.67,49.18 7.34,58.41 5.80,67.95 4.25,77.48 3.77,80.97 3.29,84.46 2.88,87.72 2.47,90.98 2.43,91.27 2.39,91.56 2.28,91.84 2.18,92.11 2.01,92.35 1.84,92.58 1.62,92.77 1.39,92.97 1.13,93.10 0.87,93.23 0.59,93.30 0.30,93.36 0.01,93.36 -0.27,93.35 -0.55,93.28 -0.84,93.21 -1.09,93.07 -1.35,92.93 -1.57,92.73 -1.78,92.53 -1.94,92.29 -2.11,92.05 -2.21,91.77 -2.31,91.50 -2.34,91.21 -2.37,90.92 -2.15,90.61 -1.93,90.31 -1.82,84.65 -1.71,78.99 -1.58,68.94 -1.44,58.90 -1.04,46.88 -0.64,34.86 -0.44,23.97 -0.23,13.07 -0.52,9.61 -0.82,6.15 -1.19,3.27 -1.56,0.39 -1.58,0.19 -1.61,0.00 -1.59,-0.18 -1.56,-0.38 -1.50,-0.56 -1.43,-0.74 -1.32,-0.90 -1.21,-1.06 -1.06,-1.19 -0.92,-1.32 -0.74,-1.41 -0.57,-1.50 -0.38,-1.55 -0.19,-1.60 -0.00,-1.60 0.18,-1.60 0.37,-1.55 0.56,-1.51 0.74,-1.42 0.91,-1.33 1.05,-1.20 1.20,-1.07 1.31,-0.91 1.42,-0.75 1.49,-0.57 1.56,-0.39 1.56,-0.39 L 1.56,-0.39 Z"/></g><g transform="translate(498.70688040367725 468.23887040344795) rotate(0 -3.6561612000275545 -4.8748816000367015)" stroke="none"><path fill="#000000" d="M -1.26,1.00 Q -1.26,1.00 -2.98,-0.47 -4.71,-1.95 -4.06,-0.92 -3.42,0.10 -3.40,0.36 -3.39,0.61 -3.43,0.87 -3.48,1.12 -3.58,1.36 -3.69,1.59 -3.85,1.79 -4.01,2.00 -4.21,2.16 -4.41,2.32 -4.65,2.42 -4.88,2.53 -5.13,2.58 -5.39,2.62 -5.65,2.61 -5.90,2.59 -6.15,2.52 -6.40,2.44 -6.62,2.31 -6.84,2.18 -7.02,1.99 -7.20,1.81 -7.34,1.59 -7.47,1.37 -7.55,1.13 -7.63,0.88 -7.21,-1.00 -6.79,-2.90 -6.81,-4.80 -6.82,-6.69 -7.16,-8.18 -7.50,-9.67 -7.43,-10.03 -7.36,-10.40 -7.20,-10.74 -7.04,-11.08 -6.81,-11.37 -6.57,-11.66 -6.27,-11.88 -5.98,-12.11 -5.64,-12.26 -5.29,-12.41 -4.93,-12.47 -4.56,-12.53 -4.19,-12.50 -3.81,-12.48 -3.46,-12.36 -3.10,-12.24 -2.79,-12.05 -2.47,-11.85 -2.21,-11.58 -1.95,-11.31 -1.76,-10.99 -1.57,-10.67 -1.47,-10.31 -1.36,-9.96 -1.34,-9.58 -1.33,-9.21 -1.00,-6.89 -0.68,-4.57 -0.63,-4.36 -0.57,-4.16 -0.58,-3.94 -0.59,-3.73 -0.67,-3.53 -0.74,-3.34 -0.88,-3.17 -1.02,-3.01 -1.20,-2.90 -1.38,-2.79 -1.59,-2.74 -1.80,-2.70 -2.01,-2.72 -2.22,-2.74 -2.41,-2.83 -2.61,-2.92 -2.76,-3.06 -2.91,-3.21 -3.02,-3.40 -3.12,-3.58 -3.15,-3.79 -3.19,-4.00 -3.15,-4.21 -3.12,-4.42 -3.02,-4.61 -2.92,-4.80 -2.77,-4.95 -2.61,-5.09 -2.42,-5.18 -2.23,-5.27 -2.02,-5.30 -1.81,-5.32 -1.60,-5.28 -1.39,-5.23 -1.21,-5.12 -1.03,-5.01 -0.89,-4.85 -0.75,-4.69 -0.67,-4.49 -0.59,-4.30 -0.58,-4.08 -0.57,-3.87 -0.62,-3.67 -0.68,-3.46 -0.80,-3.29 -0.92,-3.11 -1.08,-2.98 -1.25,-2.85 -1.45,-2.78 -1.66,-2.71 -1.87,-2.71 -2.08,-2.71 -2.28,-2.78 -2.48,-2.85 -2.65,-2.97 -2.82,-3.10 -2.94,-3.28 -3.06,-3.45 -3.06,-3.45 -3.06,-3.45 -5.28,-6.56 -7.50,-9.67 -7.43,-10.03 -7.36,-10.40 -7.20,-10.74 -7.04,-11.08 -6.81,-11.37 -6.57,-11.66 -6.27,-11.88 -5.98,-12.11 -5.64,-12.26 -5.29,-12.41 -4.93,-12.47 -4.56,-12.53 -4.19,-12.50 -3.81,-12.48 -3.46,-12.36 -3.10,-12.24 -2.79,-12.05 -2.47,-11.85 -2.21,-11.58 -1.95,-11.31 -1.76,-10.99 -1.57,-10.67 -1.47,-10.31 -1.36,-9.96 -1.34,-9.58 -1.33,-9.21 -1.41,-9.69 -1.49,-10.17 -1.32,-8.15 -1.16,-6.12 -2.29,-3.01 -3.42,0.10 -3.40,0.36 -3.39,0.61 -3.43,0.87 -3.48,1.12 -3.58,1.36 -3.69,1.59 -3.85,1.79 -4.01,2.00 -4.21,2.16 -4.41,2.32 -4.65,2.42 -4.88,2.53 -5.13,2.58 -5.39,2.62 -5.65,2.61 -5.90,2.59 -6.15,2.52 -6.40,2.44 -6.62,2.31 -6.84,2.18 -7.02,1.99 -7.20,1.81 -7.34,1.59 -7.47,1.37 -7.55,1.13 -7.63,0.88 -7.98,0.45 -8.34,0.03 -8.67,-1.64 -9.00,-3.32 -8.43,-4.79 -7.87,-6.25 -5.72,-6.64 -3.57,-7.03 -2.23,-6.04 -0.89,-5.04 0.18,-3.02 1.26,-1.00 1.36,-0.84 1.46,-0.67 1.52,-0.49 1.58,-0.30 1.59,-0.11 1.61,0.08 1.57,0.27 1.54,0.46 1.46,0.64 1.38,0.82 1.27,0.97 1.15,1.12 1.00,1.25 0.84,1.37 0.67,1.45 0.49,1.53 0.30,1.57 0.11,1.61 -0.08,1.60 -0.27,1.59 -0.46,1.53 -0.64,1.47 -0.81,1.37 -0.98,1.28 -1.12,1.14 -1.26,1.00 -1.26,1.00 L -1.26,1.00 Z"/></g><g transform="translate(551.1118576040715 391.4594852028702) rotate(0 1.2187204000092038 -5.484241800041275)" stroke="none"><path fill="#000000" d="M 0.89,1.34 Q 0.89,1.34 -0.03,2.22 -0.96,3.10 -3.82,4.31 -6.69,5.51 -9.05,4.05 -11.41,2.58 -13.17,-0.82 -14.94,-4.24 -15.59,-9.04 -16.24,-13.84 -16.07,-19.44 -15.90,-25.04 -13.62,-30.55 -11.34,-36.05 -8.16,-39.70 -4.99,-43.34 -0.93,-45.00 3.12,-46.65 6.86,-45.51 10.60,-44.37 13.10,-40.58 15.59,-36.79 16.86,-31.48 18.13,-26.18 18.23,-18.88 18.33,-11.59 16.93,-3.81 15.53,3.96 14.20,8.99 12.87,14.03 10.91,19.42 8.96,24.81 7.70,28.04 6.44,31.28 5.42,30.84 4.40,30.41 4.56,30.27 4.72,30.14 4.92,30.06 5.12,29.98 5.33,29.97 5.55,29.96 5.75,30.02 5.95,30.08 6.13,30.20 6.30,30.32 6.43,30.49 6.56,30.67 6.62,30.87 6.69,31.07 6.69,31.28 6.68,31.49 6.61,31.69 6.54,31.90 6.41,32.06 6.28,32.23 6.11,32.35 5.93,32.47 5.72,32.52 5.52,32.58 5.31,32.56 5.09,32.55 4.90,32.47 4.70,32.39 4.54,32.25 4.38,32.11 4.27,31.93 4.17,31.74 4.12,31.53 4.08,31.33 4.10,31.12 4.13,30.90 4.22,30.71 4.31,30.52 4.46,30.37 4.61,30.21 4.80,30.12 4.98,30.02 5.19,29.99 5.40,29.96 5.61,29.99 5.82,30.03 6.01,30.13 6.20,30.23 6.34,30.39 6.48,30.54 6.57,30.74 6.66,30.93 6.68,31.14 6.70,31.35 6.65,31.56 6.61,31.77 6.49,31.95 6.38,32.13 6.38,32.13 6.38,32.13 4.14,30.91 1.90,29.69 2.99,26.35 4.09,23.01 6.01,17.89 7.94,12.76 9.15,7.90 10.36,3.03 11.64,-4.23 12.92,-11.50 12.74,-18.19 12.55,-24.88 11.50,-29.39 10.44,-33.90 9.12,-36.71 7.81,-39.52 5.87,-40.72 3.93,-41.92 1.23,-40.84 -1.47,-39.77 -4.32,-36.98 -7.18,-34.19 -9.19,-29.51 -11.19,-24.83 -11.22,-19.67 -11.24,-14.50 -10.70,-10.44 -10.16,-6.39 -9.13,-3.80 -8.11,-1.22 -6.57,-0.18 -5.03,0.84 -4.13,0.27 -3.24,-0.30 -2.06,-0.82 -0.89,-1.34 -0.72,-1.43 -0.54,-1.51 -0.35,-1.56 -0.16,-1.60 0.02,-1.60 0.22,-1.59 0.40,-1.54 0.59,-1.49 0.76,-1.40 0.93,-1.31 1.08,-1.18 1.22,-1.05 1.33,-0.88 1.44,-0.72 1.50,-0.54 1.57,-0.36 1.59,-0.16 1.61,0.02 1.58,0.21 1.56,0.41 1.48,0.59 1.41,0.77 1.30,0.93 1.19,1.08 1.04,1.21 0.89,1.34 0.89,1.34 L 0.89,1.34 Z"/></g><g transform="translate(548.6744168040532 453.61422560333784) rotate(0 1.8280806000137773 1.828080600013834)" stroke="none"><path fill="#000000" d="M 0.51,-1.53 Q 0.51,-1.53 1.25,-1.55 2.00,-1.58 1.83,-2.74 1.67,-3.89 1.80,-4.15 1.93,-4.42 2.12,-4.64 2.31,-4.86 2.55,-5.03 2.79,-5.20 3.07,-5.31 3.34,-5.42 3.63,-5.46 3.92,-5.50 4.21,-5.47 4.50,-5.44 4.78,-5.34 5.06,-5.24 5.30,-5.07 5.54,-4.91 5.74,-4.69 5.94,-4.48 6.08,-4.22 6.22,-3.96 6.29,-3.68 6.37,-3.39 6.37,-3.10 6.38,-2.81 6.31,-2.52 6.25,-2.23 5.01,-1.11 3.77,0.00 3.02,1.01 2.28,2.03 2.03,3.21 1.79,4.39 0.56,4.18 -0.67,3.98 0.13,2.80 0.93,1.61 1.25,0.96 1.56,0.30 1.80,0.13 2.04,-0.03 2.32,-0.14 2.59,-0.25 2.89,-0.29 3.18,-0.33 3.48,-0.29 3.77,-0.26 4.05,-0.16 4.33,-0.06 4.58,0.10 4.83,0.27 5.02,0.49 5.22,0.71 5.37,0.97 5.51,1.23 5.58,1.52 5.66,1.80 5.66,2.10 5.66,2.40 5.60,2.69 5.53,2.98 5.39,3.24 5.26,3.50 5.06,3.73 4.87,3.95 2.94,3.95 1.01,3.94 -0.11,2.77 -1.24,1.60 -1.21,1.39 -1.19,1.18 -1.10,0.99 -1.01,0.80 -0.86,0.64 -0.71,0.49 -0.52,0.39 -0.33,0.30 -0.12,0.26 0.08,0.23 0.29,0.27 0.50,0.31 0.68,0.41 0.87,0.51 1.01,0.66 1.16,0.82 1.24,1.01 1.33,1.21 1.35,1.42 1.37,1.63 1.33,1.84 1.28,2.04 1.17,2.23 1.05,2.41 0.89,2.54 0.73,2.68 0.53,2.75 0.33,2.83 0.12,2.84 -0.08,2.85 -0.29,2.79 -0.49,2.73 -0.67,2.61 -0.84,2.49 -0.97,2.32 -1.09,2.15 -1.16,1.95 -1.23,1.74 -1.22,1.53 -1.22,1.32 -1.15,1.12 -1.08,0.92 -0.95,0.75 -0.82,0.58 -0.64,0.47 -0.47,0.35 -0.26,0.29 -0.06,0.24 0.15,0.25 0.36,0.27 0.56,0.35 0.75,0.43 0.91,0.57 1.07,0.71 1.18,0.89 1.29,1.07 1.33,1.28 1.37,1.49 1.37,1.49 1.37,1.49 -0.23,0.96 -1.85,0.43 -0.14,0.37 1.56,0.30 1.80,0.13 2.04,-0.03 2.32,-0.14 2.59,-0.25 2.89,-0.29 3.18,-0.33 3.48,-0.29 3.77,-0.26 4.05,-0.16 4.33,-0.06 4.58,0.10 4.83,0.27 5.02,0.49 5.22,0.71 5.37,0.97 5.51,1.23 5.58,1.52 5.66,1.80 5.66,2.10 5.66,2.40 5.60,2.69 5.53,2.98 5.39,3.24 5.26,3.50 5.06,3.73 4.87,3.95 3.78,5.20 2.70,6.44 0.42,7.06 -1.85,7.68 -2.39,5.38 -2.93,3.08 -2.29,1.07 -1.65,-0.93 0.00,-2.41 1.67,-3.89 1.80,-4.15 1.93,-4.42 2.12,-4.64 2.31,-4.86 2.55,-5.03 2.79,-5.20 3.07,-5.31 3.34,-5.42 3.63,-5.46 3.92,-5.50 4.21,-5.47 4.50,-5.44 4.78,-5.34 5.06,-5.24 5.30,-5.07 5.54,-4.91 5.74,-4.69 5.94,-4.48 6.08,-4.22 6.22,-3.96 6.29,-3.68 6.37,-3.39 6.37,-3.10 6.38,-2.81 6.31,-2.52 6.25,-2.23 6.41,-2.15 6.58,-2.07 5.93,-0.32 5.28,1.42 3.74,2.20 2.19,2.98 0.84,2.25 -0.51,1.53 -0.68,1.44 -0.86,1.36 -1.01,1.24 -1.16,1.11 -1.28,0.96 -1.39,0.80 -1.47,0.62 -1.55,0.44 -1.58,0.25 -1.61,0.06 -1.59,-0.12 -1.58,-0.32 -1.52,-0.50 -1.45,-0.69 -1.35,-0.85 -1.25,-1.02 -1.11,-1.15 -0.97,-1.28 -0.80,-1.38 -0.63,-1.48 -0.44,-1.53 -0.25,-1.59 -0.06,-1.60 0.12,-1.60 0.31,-1.57 0.51,-1.53 0.51,-1.53 L 0.51,-1.53 Z"/></g></svg>